<?xml version="1.0" encoding="UTF-8" standalone="no"?>
<svg
   xmlns:dc="http://purl.org/dc/elements/1.1/"
   xmlns:cc="http://creativecommons.org/ns#"
   xmlns:rdf="http://www.w3.org/1999/02/22-rdf-syntax-ns#"
   xmlns:svg="http://www.w3.org/2000/svg"
   xmlns="http://www.w3.org/2000/svg"
   xmlns:sodipodi="http://sodipodi.sourceforge.net/DTD/sodipodi-0.dtd"
   xmlns:inkscape="http://www.inkscape.org/namespaces/inkscape"
   width="21"
   height="21.023901"
   viewBox="0 0 21 21.023901"
   fill="none"
   version="1.1"
   id="svg4"
   sodipodi:docname="dribbble.svg"
   inkscape:version="1.0 (4035a4fb49, 2020-05-01)">
  <metadata
     id="metadata10">
    <rdf:RDF>
      <cc:Work
         rdf:about="">
        <dc:format>image/svg+xml</dc:format>
        <dc:type
           rdf:resource="http://purl.org/dc/dcmitype/StillImage" />
        <dc:title />
      </cc:Work>
    </rdf:RDF>
  </metadata>
  <defs
     id="defs8" />
  <sodipodi:namedview
     inkscape:document-rotation="0"
     pagecolor="#0a0a09"
     bordercolor="#666666"
     borderopacity="1"
     objecttolerance="10"
     gridtolerance="10"
     guidetolerance="10"
     inkscape:pageopacity="0"
     inkscape:pageshadow="2"
     inkscape:window-width="1366"
     inkscape:window-height="671"
     id="namedview6"
     showgrid="false"
     inkscape:zoom="10.913015"
     inkscape:cx="7.5"
     inkscape:cy="13.18129"
     inkscape:window-x="0"
     inkscape:window-y="27"
     inkscape:window-maximized="1"
     inkscape:current-layer="svg4" />
  <path
     d="m 14.323746,20.293563 c 0.01751,-0.0051 0.03421,-0.01222 0.05172,-0.01835 C 25.073984,16.024723 22.114516,0 10.510285,0 4.6867114,0 0,4.7471483 0,10.510285 0,17.803488 7.3869835,23.007892 14.323746,20.293563 Z M 4.6254056,17.56886 c 0.7462236,-1.254288 3.1609625,-4.792727 7.2827464,-6.013672 0.861842,2.197521 1.466181,4.761207 1.52575,7.668116 C 10.310586,20.27352 7.0164858,19.566695 4.6254056,17.56886 Z M 14.725724,18.675 c -0.114651,-2.793099 -0.68482,-5.27 -1.497647,-7.415856 1.823519,-0.28465 3.934321,-0.09459 6.328106,0.864476 -0.508919,2.856213 -2.335058,5.256866 -4.830459,6.55138 z m 4.967955,-7.909835 C 17.057278,9.7745732 14.733713,9.6510646 12.722703,10.034696 12.411774,9.33401 12.085076,8.6604737 11.73912,8.0403653 c 3.085698,-1.2323249 4.909173,-2.7344289 5.725462,-3.5296942 1.44084,1.6676324 2.296515,3.8266082 2.229097,6.2544939 z M 16.531821,3.5752461 C 15.789115,4.2820707 14.039923,5.7097081 11.048932,6.8772372 9.5827508,4.5579609 8.0149685,2.9218643 7.0217417,2.0057114 10.199355,0.69718168 13.863939,1.2559796 16.531821,3.5752461 Z M 5.7657719,2.6477122 C 6.5154994,3.307233 8.1612389,4.8907839 9.7491624,7.3396795 7.5682799,8.0421173 4.833851,8.5580029 1.5082289,8.6307032 2.0372472,6.0959598 3.617294,3.9483649 5.7657719,2.6477122 Z M 1.3418134,9.9497308 c 3.7223897,-0.060421 6.7353438,-0.6481255 9.1167956,-1.4434047 0.329318,0.5771909 0.642,1.2060585 0.942418,1.8594409 C 7.2538459,11.68656 4.6621835,15.096307 3.6698399,16.636099 2.0687691,14.849345 1.185911,12.517749 1.3418134,9.9497308 Z"
     fill="#ffffff"
     id="path2"
     style="stroke-width:1.40159" />
</svg>
