<svg width="20" height="20" viewBox="0 0 20 20" fill="none" xmlns="http://www.w3.org/2000/svg">
<path d="M6.25016 16.6666H1.66683C1.55739 16.6667 1.44901 16.6451 1.34789 16.6032C1.24678 16.5614 1.1549 16.5 1.07751 16.4226C1.00012 16.3452 0.938741 16.2533 0.896872 16.1522C0.855003 16.0511 0.833468 15.9427 0.833496 15.8333V9.99996C0.833468 9.89052 0.855003 9.78214 0.896872 9.68102C0.938741 9.57991 1.00012 9.48803 1.07751 9.41064C1.1549 9.33325 1.24678 9.27187 1.34789 9.23C1.44901 9.18813 1.55739 9.1666 1.66683 9.16663H6.25016C7.24472 9.16663 8.19855 9.56171 8.90181 10.265C9.60507 10.9682 10.0002 11.9221 10.0002 12.9166C10.0002 13.9112 9.60507 14.865 8.90181 15.5683C8.19855 16.2715 7.24472 16.6666 6.25016 16.6666ZM2.50016 15H6.25016C6.8027 15 7.3326 14.7805 7.7233 14.3898C8.114 13.9991 8.3335 13.4692 8.3335 12.9166C8.3335 12.3641 8.114 11.8342 7.7233 11.4435C7.3326 11.0528 6.8027 10.8333 6.25016 10.8333H2.50016V15Z" fill="white"/>
<path d="M5.8335 10.8333H1.66683C1.55739 10.8333 1.44901 10.8118 1.34789 10.7699C1.24678 10.728 1.1549 10.6667 1.07751 10.5893C1.00012 10.5119 0.938741 10.42 0.896872 10.3189C0.855003 10.2178 0.833468 10.1094 0.833496 9.99996V4.99996C0.833468 4.89052 0.855003 4.78214 0.896872 4.68102C0.938741 4.57991 1.00012 4.48803 1.07751 4.41064C1.1549 4.33325 1.24678 4.27187 1.34789 4.23C1.44901 4.18813 1.55739 4.1666 1.66683 4.16663H5.8335C6.71755 4.16663 7.5654 4.51782 8.19052 5.14294C8.81564 5.76806 9.16683 6.6159 9.16683 7.49996C9.16683 8.38401 8.81564 9.23186 8.19052 9.85698C7.5654 10.4821 6.71755 10.8333 5.8335 10.8333ZM2.50016 9.16663H5.8335C6.27552 9.16663 6.69945 8.99103 7.01201 8.67847C7.32457 8.36591 7.50016 7.94199 7.50016 7.49996C7.50016 7.05793 7.32457 6.63401 7.01201 6.32145C6.69945 6.00889 6.27552 5.83329 5.8335 5.83329H2.50016V9.16663ZM16.6668 5.83329H13.3335C13.1125 5.83329 12.9005 5.74549 12.7442 5.58921C12.588 5.43293 12.5002 5.22097 12.5002 4.99996C12.5002 4.77895 12.588 4.56698 12.7442 4.4107C12.9005 4.25442 13.1125 4.16663 13.3335 4.16663H16.6668C16.8878 4.16663 17.0998 4.25442 17.2561 4.4107C17.4124 4.56698 17.5002 4.77895 17.5002 4.99996C17.5002 5.22097 17.4124 5.43293 17.2561 5.58921C17.0998 5.74549 16.8878 5.83329 16.6668 5.83329ZM18.3335 11.6666H11.6668C11.4458 11.6666 11.2339 11.5788 11.0776 11.4225C10.9213 11.2663 10.8335 11.0543 10.8335 10.8333C10.8335 10.6123 10.9213 10.4003 11.0776 10.244C11.2339 10.0878 11.4458 9.99996 11.6668 9.99996H18.3335C18.5545 9.99996 18.7665 10.0878 18.9228 10.244C19.079 10.4003 19.1668 10.6123 19.1668 10.8333C19.1668 11.0543 19.079 11.2663 18.9228 11.4225C18.7665 11.5788 18.5545 11.6666 18.3335 11.6666Z" fill="white"/>
<path d="M15.0002 16.6666C13.8955 16.6653 12.8364 16.2259 12.0553 15.4448C11.2742 14.6637 10.8348 13.6046 10.8335 12.5V10.8333C10.8335 9.72822 11.2725 8.66842 12.0539 7.88701C12.8353 7.10561 13.8951 6.66663 15.0002 6.66663C16.1052 6.66663 17.165 7.10561 17.9464 7.88701C18.7278 8.66842 19.1668 9.72822 19.1668 10.8333C19.1668 11.0543 19.079 11.2663 18.9228 11.4225C18.7665 11.5788 18.5545 11.6666 18.3335 11.6666C18.1125 11.6666 17.9005 11.5788 17.7442 11.4225C17.588 11.2663 17.5002 11.0543 17.5002 10.8333C17.5002 10.1703 17.2368 9.53437 16.7679 9.06553C16.2991 8.59668 15.6632 8.33329 15.0002 8.33329C14.3371 8.33329 13.7012 8.59668 13.2324 9.06553C12.7636 9.53437 12.5002 10.1703 12.5002 10.8333V12.5C12.4998 13.108 12.7213 13.6953 13.123 14.1519C13.5246 14.6084 14.079 14.9027 14.6822 14.9798C15.2853 15.0569 15.8959 14.9113 16.3995 14.5705C16.903 14.2296 17.265 13.7168 17.4176 13.1282C17.4726 12.9147 17.61 12.7317 17.7997 12.6193C17.9894 12.5069 18.2159 12.4743 18.4296 12.5286C18.6433 12.5828 18.8268 12.7196 18.9399 12.9088C19.053 13.0981 19.0864 13.3245 19.033 13.5384C18.8046 14.4342 18.284 15.2282 17.5536 15.7948C16.8232 16.3614 15.9246 16.6682 15.0002 16.6666Z" fill="white"/>
</svg>
