<?xml version="1.0" encoding="UTF-8" standalone="no"?>
<svg
   xmlns:dc="http://purl.org/dc/elements/1.1/"
   xmlns:cc="http://creativecommons.org/ns#"
   xmlns:rdf="http://www.w3.org/1999/02/22-rdf-syntax-ns#"
   xmlns:svg="http://www.w3.org/2000/svg"
   xmlns="http://www.w3.org/2000/svg"
   xmlns:sodipodi="http://sodipodi.sourceforge.net/DTD/sodipodi-0.dtd"
   xmlns:inkscape="http://www.inkscape.org/namespaces/inkscape"
   width="27.000034"
   height="18"
   viewBox="0 0 27.000034 18"
   fill="none"
   version="1.1"
   id="svg4"
   sodipodi:docname="behance.svg"
   inkscape:version="1.0 (4035a4fb49, 2020-05-01)">
  <metadata
     id="metadata10">
    <rdf:RDF>
      <cc:Work
         rdf:about="">
        <dc:format>image/svg+xml</dc:format>
        <dc:type
           rdf:resource="http://purl.org/dc/dcmitype/StillImage" />
        <dc:title />
      </cc:Work>
    </rdf:RDF>
  </metadata>
  <defs
     id="defs8" />
  <sodipodi:namedview
     inkscape:document-rotation="0"
     pagecolor="#252121"
     bordercolor="#666666"
     borderopacity="1"
     objecttolerance="10"
     gridtolerance="10"
     guidetolerance="10"
     inkscape:pageopacity="0"
     inkscape:pageshadow="2"
     inkscape:window-width="1366"
     inkscape:window-height="671"
     id="namedview6"
     showgrid="false"
     inkscape:zoom="8.184761"
     inkscape:cx="7.666504"
     inkscape:cy="5"
     inkscape:window-x="0"
     inkscape:window-y="27"
     inkscape:window-maximized="1"
     inkscape:current-layer="svg4" />
  <path
     d="M 24.749647,2.3999939 H 16.874826 V 0 h 7.874821 z M 26.691486,14.4 c -0.497339,1.556406 -2.282579,3.6 -5.73858,3.6 -3.458159,0 -6.259445,-2.074806 -6.259445,-6.809994 0,-4.6920062 2.615598,-7.1040061 6.149106,-7.1040061 3.46734,0 5.584499,2.1383999 6.04692,5.3112059 0.08766,0.6071942 0.122579,1.4255992 0.10692,2.5679882 h -9.030419 c 0.14634,3.853205 3.91842,3.9744 5.1615,2.434806 z M 18.044827,9.5999938 h 5.58558 c -0.11808,-1.8563939 -1.278,-2.6627939 -2.78658,-2.6627939 -1.64934,0 -2.561581,0.9216 -2.799,2.6627939 z M 7.274167,17.985599 H 0 V 0.02519982 h 7.8220331 c 6.1604459,0.0972 6.2774459,6.53279408 3.0599819,8.28719998 3.89358,1.512 4.02408,9.6731992 -3.607848,9.6731992 z M 3.3749711,7.1999999 H 7.406917 c 2.821464,0 3.269214,-3.6 -0.3509999,-3.6 H 3.3749711 Z M 7.1898011,10.8 h -3.81483 v 3.619206 h 3.75858 c 3.4368299,0 3.2264639,-3.619206 0.05625,-3.619206 z"
     fill="#ffffff"
     id="path2"
     style="stroke-width:1.8" />
</svg>
