<?xml version="1.0" encoding="UTF-8" standalone="no"?>
<svg
   xmlns:dc="http://purl.org/dc/elements/1.1/"
   xmlns:cc="http://creativecommons.org/ns#"
   xmlns:rdf="http://www.w3.org/1999/02/22-rdf-syntax-ns#"
   xmlns:svg="http://www.w3.org/2000/svg"
   xmlns="http://www.w3.org/2000/svg"
   xmlns:sodipodi="http://sodipodi.sourceforge.net/DTD/sodipodi-0.dtd"
   xmlns:inkscape="http://www.inkscape.org/namespaces/inkscape"
   sodipodi:docname="cjx.svg"
   inkscape:version="1.0 (4035a4fb49, 2020-05-01)"
   id="svg8"
   version="1.1"
   viewBox="0 0 4.5924621 4.1417718"
   height="4.1417718mm"
   width="4.5924621mm">
  <defs
     id="defs2" />
  <sodipodi:namedview
     inkscape:window-maximized="1"
     inkscape:window-y="27"
     inkscape:window-x="0"
     inkscape:window-height="671"
     inkscape:window-width="1366"
     showborder="false"
     showgrid="false"
     inkscape:document-rotation="0"
     inkscape:current-layer="layer1"
     inkscape:document-units="px"
     inkscape:cy="15.384983"
     inkscape:cx="4.3270699"
     inkscape:zoom="1.4"
     inkscape:pageshadow="2"
     inkscape:pageopacity="0"
     borderopacity="1.0"
     bordercolor="#666666"
     pagecolor="#263421"
     id="base" />
  <metadata
     id="metadata5">
    <rdf:RDF>
      <cc:Work
         rdf:about="">
        <dc:format>image/svg+xml</dc:format>
        <dc:type
           rdf:resource="http://purl.org/dc/dcmitype/StillImage" />
        <dc:title />
      </cc:Work>
    </rdf:RDF>
  </metadata>
  <g
     id="layer1"
     inkscape:groupmode="layer"
     inkscape:label="Layer 1"
     transform="translate(-48.924895,-117.0093)">
    <g
       style="fill:#ffffff"
       id="g900"
       transform="matrix(0.0678549,0,0,0.0678549,43.94749,107.68559)">
      <path
         transform="scale(0.26458333)"
         d="m 325.24219,519.33203 c -28.8,0 -48,12.00078 -48,40.80078 v 82.56055 c 0,28.8 19.2,40.79883 48,40.79883 h 31.20117 c 28.79999,0 48,-11.99883 48,-40.79883 v -17.52148 l -43.20117,-12 v 20.88085 c 0,6 -3.59883,9.11915 -10.79883,9.11915 h -19.20117 c -7.2,0 -10.79883,-3.11915 -10.79883,-9.11915 v -66 c 0,-6 3.59883,-9.11914 10.79883,-9.11914 h 19.20117 c 7.2,0 10.79883,3.11914 10.79883,9.11914 v 18 l 43.20117,-10.80078 v -15.11914 c 0,-28.8 -19.20001,-40.80078 -48,-40.80078 z"
         style="font-style:normal;font-variant:normal;font-stretch:normal;font-size:63.5px;line-height:1.25;font-family:CPMono_v07;-inkscape-font-specification:'CPMono_v07 weight=307';text-align:center;text-anchor:middle;fill:#ffffff;stroke-width:2.5983"
         id="path887" />
      <path
         transform="scale(0.26458333)"
         d="m 423.83203,591.0918 v 38.33984 h 67.38477 v 72.73047 c 0,5.80913 -3.48416,8.83008 -10.45508,8.83008 h -13.94336 c -6.97092,0 -10.45508,-3.02095 -10.45508,-8.83008 v -22.53906 l -41.82617,11.61718 v 19.28711 c 0,27.88377 18.58889,39.50196 46.47266,39.50196 h 25.56054 c 27.88381,0 46.47266,-11.61819 46.47266,-39.50196 V 591.0918 Z"
         style="font-style:normal;font-variant:normal;font-stretch:normal;font-size:61.4799px;line-height:1.25;font-family:CPMono_v07;-inkscape-font-specification:'CPMono_v07 weight=307';text-align:center;text-anchor:middle;fill:#ffffff;stroke-width:2.51564"
         id="path890" />
    </g>
  </g>
</svg>
