<?xml version="1.0" encoding="UTF-8" standalone="no"?>
<svg
   xmlns:dc="http://purl.org/dc/elements/1.1/"
   xmlns:cc="http://creativecommons.org/ns#"
   xmlns:rdf="http://www.w3.org/1999/02/22-rdf-syntax-ns#"
   xmlns:svg="http://www.w3.org/2000/svg"
   xmlns="http://www.w3.org/2000/svg"
   xmlns:sodipodi="http://sodipodi.sourceforge.net/DTD/sodipodi-0.dtd"
   xmlns:inkscape="http://www.inkscape.org/namespaces/inkscape"
   inkscape:version="1.0 (4035a4fb49, 2020-05-01)"
   sodipodi:docname="codepen.svg"
   id="svg4"
   version="1.1"
   height="18"
   width="18.073719">
  <metadata
     id="metadata10">
    <rdf:RDF>
      <cc:Work
         rdf:about="">
        <dc:format>image/svg+xml</dc:format>
        <dc:type
           rdf:resource="http://purl.org/dc/dcmitype/StillImage" />
        <dc:title></dc:title>
      </cc:Work>
    </rdf:RDF>
  </metadata>
  <defs
     id="defs8" />
  <sodipodi:namedview
     inkscape:current-layer="svg4"
     inkscape:window-maximized="1"
     inkscape:window-y="27"
     inkscape:window-x="0"
     inkscape:cy="9.9618069"
     inkscape:cx="10.004903"
     inkscape:zoom="11.619736"
     showgrid="false"
     id="namedview6"
     inkscape:window-height="671"
     inkscape:window-width="1366"
     inkscape:pageshadow="2"
     inkscape:pageopacity="0"
     guidetolerance="10"
     gridtolerance="10"
     objecttolerance="10"
     borderopacity="1"
     bordercolor="#666666"
     pagecolor="#0e0d13" />
  <path
     style="stroke-width:0.903464;fill:#ffffff;fill-opacity:1"
     id="path2"
     fill="#797575"
     d="M 9.1655594,18 H 8.9243344 L 8.5231962,17.74703 3.4195253,14.211774 0.40195398,12.029003 C 0.12639732,11.832952 -0.02448125,11.504994 0.00442962,11.168905 q 0.03162125,-2.5857153 0,-5.1723341 A 1.0299495,1.0299495 0 0 1 0.55644641,4.9864977 L 7.9946695,0.49447224 c 1.1022266,-0.66675679 1.093192,-0.65772215 2.1918045,0.0180693 l 7.435513,4.57153026 a 2.5748738,2.5748738 0 0 1 0.451732,0.4725119 v 6.1796973 a 6.6856372,6.6856372 0 0 1 -0.598093,0.523106 L 12.054839,15.984371 9.1637525,17.99729 Z M 8.4969957,1.4946074 1.6035617,5.689393 5.0096228,8.0384007 A 0.36138579,0.36138579 0 0 0 5.3222215,8.0131037 Q 6.8147448,7.1096392 8.2910058,6.1881054 A 0.48787082,0.48787082 0 0 0 8.4879611,5.841175 l 0.00903,-4.3456641 z m 1.0841574,0 0.00723,4.3845132 A 0.39752437,0.39752437 0 0 0 9.7482963,6.1673257 L 12.96734,8.1278436 16.472782,5.6884896 Z M 16.474587,11.579982 13.160679,9.5742903 a 0.49690546,0.49690546 0 0 0 -0.410172,0.079505 L 9.8503855,11.655873 c -0.1834033,0.108415 -0.2891086,0.311695 -0.2710393,0.524009 l 0.00542,3.568685 v 0.626101 z m -8.0408338,4.754933 c 0.018069,-0.05421 0.034332,-0.108416 0.043366,-0.166237 l -0.00903,-4.087274 A 0.6053212,0.6053212 0 0 0 8.2205356,11.679363 L 5.3384839,9.6537952 a 0.45173224,0.45173224 0 0 0 -0.5999004,0 L 1.9062223,11.388447 c -0.090346,0.05782 -0.1806929,0.129196 -0.2945294,0.211411 z M 11.94823,8.8361598 9.1782079,7.1376466 C 9.10051,7.0969907 9.0083566,7.0924734 8.9270448,7.126805 L 6.1208841,8.8271252 9.0444952,10.85992 Z m 4.969055,-2.085196 -2.911866,2.0237604 2.909155,1.7635628 z M 4.0817648,8.7765311 1.1789334,6.7554811 v 3.7529919 z" />
</svg>
