<?xml version="1.0" encoding="UTF-8" standalone="no"?>
<svg
   xmlns:dc="http://purl.org/dc/elements/1.1/"
   xmlns:cc="http://creativecommons.org/ns#"
   xmlns:rdf="http://www.w3.org/1999/02/22-rdf-syntax-ns#"
   xmlns:svg="http://www.w3.org/2000/svg"
   xmlns="http://www.w3.org/2000/svg"
   xmlns:sodipodi="http://sodipodi.sourceforge.net/DTD/sodipodi-0.dtd"
   xmlns:inkscape="http://www.inkscape.org/namespaces/inkscape"
   inkscape:version="1.0 (4035a4fb49, 2020-05-01)"
   sodipodi:docname="css3.svg"
   id="svg14"
   version="1.1"
   fill="none"
   viewBox="0 0 31 35.000011"
   height="35.000011"
   width="31">
  <metadata
     id="metadata20">
    <rdf:RDF>
      <cc:Work
         rdf:about="">
        <dc:format>image/svg+xml</dc:format>
        <dc:type
           rdf:resource="http://purl.org/dc/dcmitype/StillImage" />
      </cc:Work>
    </rdf:RDF>
  </metadata>
  <defs
     id="defs18" />
  <sodipodi:namedview
     inkscape:current-layer="svg14"
     inkscape:window-maximized="1"
     inkscape:window-y="27"
     inkscape:window-x="0"
     inkscape:cy="17.257812"
     inkscape:cx="15.617432"
     inkscape:zoom="9.0941789"
     showgrid="false"
     id="namedview16"
     inkscape:window-height="671"
     inkscape:window-width="1366"
     inkscape:pageshadow="2"
     inkscape:pageopacity="0"
     guidetolerance="10"
     gridtolerance="10"
     objecttolerance="10"
     borderopacity="1"
     bordercolor="#666666"
     pagecolor="#ffffff" />
  <g
     transform="matrix(1.0044998,0,0,1,-0.38428948,-0.742188)"
     id="g851">
    <path
       d="M 31.2437,0.742188 28.4323,32.2385 15.7942,35.7422 3.19113,32.2434 0.382568,0.742188 Z"
       fill="#264de4"
       id="path2" />
    <path
       d="M 26.0253,30.2328 28.4279,3.31787 H 15.8132 V 33.064 Z"
       fill="#2965f1"
       id="path4" />
    <path
       d="m 6.82117,15.0015 0.34627,3.8634 h 8.64576 v -3.8634 z"
       fill="#ebebeb"
       id="path6" />
    <path
       d="M 15.813,7.1814 H 15.7997 6.12524 L 6.47646,11.045 H 15.813 Z"
       fill="#ebebeb"
       id="path8" />
    <path
       d="m 15.8131,29.055 v -4.0196 l -0.0169,0.0044 -4.3028,-1.1619 -0.2751,-3.0813 H 9.12748 7.33997 l 0.54128,6.0662 7.91405,2.1971 z"
       fill="#ebebeb"
       id="path10" />
    <path
       d="m 20.5572,18.8647 -0.4484,5.0106 -4.309,1.1631 v 4.0195 l 7.9203,-2.1951 0.0582,-0.6528 0.9078,-10.1713 0.0943,-1.0374 0.6975,-7.8199 h -9.6781 v 3.8636 h 5.444 l -0.3515,3.9563 h -5.0925 v 3.8634 z"
       fill="#ffffff"
       id="path12" />
  </g>
</svg>
