<svg width="25" height="30" viewBox="0 0 25 30" fill="none" xmlns="http://www.w3.org/2000/svg">
<path d="M0.587755 19.0592C-0.195918 18.2755 -0.195918 17.0143 0.587755 16.2306C0.979592 15.8388 1.48776 15.6429 2.00204 15.6429C2.51633 15.6429 3.02449 15.8388 3.41633 16.2306L10.3592 23.1735V2.00204C10.3592 0.9 11.2531 0 12.3612 0C13.4633 0 14.3633 0.893878 14.3633 2.00204V23.1735L21.2939 16.2306C22.0776 15.4469 23.3388 15.4469 24.1224 16.2306C24.9061 17.0143 24.9061 18.2755 24.1224 19.0592L13.7694 29.4122C13.3959 29.7857 12.8878 30 12.3551 30C11.8224 30 11.3143 29.7918 10.9408 29.4122L0.587755 19.0592Z" fill="white"/>
</svg>
