<svg width="20" height="20" viewBox="0 0 20 20" fill="none" xmlns="http://www.w3.org/2000/svg">
<g clip-path="url(#clip0)">
<path d="M9.99995 19.3073C15.1776 19.3073 19.3749 15.11 19.3749 9.93232C19.3749 4.75468 15.1776 0.557373 9.99995 0.557373C4.82231 0.557373 0.625 4.75468 0.625 9.93232C0.625 15.11 4.82231 19.3073 9.99995 19.3073Z" fill="white"/>
<path d="M10 0C8.02219 0 6.08879 0.58649 4.4443 1.6853C2.79981 2.78412 1.51809 4.3459 0.761209 6.17317C0.00433282 8.00043 -0.1937 10.0111 0.192152 11.9509C0.578004 13.8907 1.53041 15.6725 2.92894 17.0711C4.32746 18.4696 6.10929 19.422 8.0491 19.8079C9.98891 20.1937 11.9996 19.9957 13.8268 19.2388C15.6541 18.4819 17.2159 17.2002 18.3147 15.5557C19.4135 13.9112 20 11.9778 20 10C19.997 7.34876 18.9425 4.80697 17.0677 2.93226C15.193 1.05754 12.6512 0.00300985 10 0V0ZM18.7462 10.0749C16.6708 9.51864 14.4947 9.45101 12.3887 9.87735C12.1062 9.17242 11.8011 8.47785 11.4735 7.79364C13.3632 6.90906 15.093 5.7171 16.5925 4.26631C17.983 5.85278 18.7497 7.89042 18.7499 10C18.7499 10.025 18.7462 10.0487 18.7462 10.0749ZM15.7087 3.38376C14.31 4.74037 12.6955 5.85511 10.9313 6.68244C9.99292 4.88917 8.90135 3.18034 7.66876 1.57501C9.05362 1.18439 10.514 1.14521 11.9178 1.46103C13.3217 1.77684 14.6246 2.43769 15.7087 3.38376ZM6.43368 2.0175C7.69665 3.62549 8.81132 5.34461 9.76404 7.15376C7.11376 8.17156 4.25658 8.53309 1.43632 8.2075C1.72286 6.85503 2.32487 5.58939 3.1933 4.51371C4.06174 3.43802 5.17202 2.58273 6.43368 2.0175ZM1.2499 10C1.2499 9.81257 1.26615 9.62879 1.27874 9.44501C2.01443 9.53678 2.75489 9.58519 3.49627 9.59C5.83417 9.58306 8.15031 9.1406 10.3261 8.28527C10.6261 8.91032 10.9074 9.54404 11.1699 10.1864C8.03538 11.1249 5.32813 13.1307 3.51759 15.8561C2.05959 14.2541 1.25107 12.1662 1.2499 10ZM4.4312 16.7438C6.0938 14.1333 8.64871 12.2164 11.6199 11.35C12.4136 13.5343 12.9799 15.7945 13.3098 18.095C11.8466 18.6967 10.2472 18.8888 8.68313 18.6508C7.11903 18.4127 5.6492 17.7535 4.4312 16.7438ZM14.4832 17.5C14.143 15.3065 13.5955 13.1502 12.8483 11.06C14.7734 10.7021 16.7552 10.7954 18.6382 11.3325C18.4407 12.6026 17.9659 13.8135 17.2477 14.8795C16.5294 15.9454 15.5853 16.84 14.4824 17.5H14.4832Z" fill="black"/>
</g>
<defs>
<clipPath id="clip0">
<rect width="20" height="20" fill="white"/>
</clipPath>
</defs>
</svg>
