<?xml version="1.0" encoding="UTF-8" standalone="no"?>
<svg
   xmlns:dc="http://purl.org/dc/elements/1.1/"
   xmlns:cc="http://creativecommons.org/ns#"
   xmlns:rdf="http://www.w3.org/1999/02/22-rdf-syntax-ns#"
   xmlns:svg="http://www.w3.org/2000/svg"
   xmlns="http://www.w3.org/2000/svg"
   xmlns:sodipodi="http://sodipodi.sourceforge.net/DTD/sodipodi-0.dtd"
   xmlns:inkscape="http://www.inkscape.org/namespaces/inkscape"
   inkscape:version="1.0 (4035a4fb49, 2020-05-01)"
   height="15.749998"
   width="20.999998"
   sodipodi:docname="email.svg"
   xml:space="preserve"
   viewBox="0 0 20.999998 15.749998"
   y="0px"
   x="0px"
   id="Layer_1"
   version="1.1"><metadata
   id="metadata43"><rdf:RDF><cc:Work
       rdf:about=""><dc:format>image/svg+xml</dc:format><dc:type
         rdf:resource="http://purl.org/dc/dcmitype/StillImage" /><dc:title></dc:title></cc:Work></rdf:RDF></metadata><defs
   id="defs41" /><sodipodi:namedview
   inkscape:current-layer="Layer_1"
   inkscape:window-maximized="1"
   inkscape:window-y="27"
   inkscape:window-x="0"
   inkscape:cy="6.9945144"
   inkscape:cx="6.0281386"
   inkscape:zoom="5.1154756"
   showgrid="false"
   id="namedview39"
   inkscape:window-height="671"
   inkscape:window-width="1366"
   inkscape:pageshadow="2"
   inkscape:pageopacity="0"
   guidetolerance="10"
   gridtolerance="10"
   objecttolerance="10"
   borderopacity="1"
   bordercolor="#666666"
   pagecolor="#0c0f10" />
<g
   style="fill:#ffffff;fill-opacity:1"
   transform="matrix(0.04101562,0,0,0.04101562,0,-2.6249997)"
   id="g6">
	<g
   style="fill:#ffffff;fill-opacity:1"
   id="g4">
		<path
   style="fill:#ffffff;fill-opacity:1"
   id="path2"
   d="M 405.333,213.874 V 106.667 C 405.333,83.136 386.198,64 362.666,64 h -320 C 19.135,64 0,83.135 0,106.667 V 320 c 0,23.531 19.135,42.667 42.667,42.667 H 281.882 C 295.858,411.84 341.073,448 394.667,448 c 20.625,0 40.906,-5.427 58.677,-15.708 5.094,-2.948 6.844,-9.469 3.885,-14.573 -2.948,-5.104 -9.479,-6.865 -14.573,-3.885 -14.521,8.396 -31.115,12.833 -47.99,12.833 -52.938,0 -96,-43.063 -96,-96 0,-52.937 43.063,-96 96,-96 52.937,0 96,43.063 96,96 v 10.667 c 0,11.76 -9.573,21.333 -21.333,21.333 -11.76,0 -21.333,-9.573 -21.333,-21.333 V 298.667 C 448,292.771 443.229,288 437.333,288 c -2.869,0 -5.447,1.161 -7.362,3 -9.428,-8.401 -21.714,-13.667 -35.305,-13.667 -29.406,0 -53.333,23.927 -53.333,53.333 0,29.406 23.927,53.334 53.334,53.334 15.896,0 30.03,-7.131 39.81,-18.202 C 442.204,376.775 454.917,384 469.334,384 492.865,384 512,364.865 512,341.333 V 330.666 C 512,269.569 465.044,219.288 405.333,213.874 Z M 42.667,85.333 h 320 c 0.444,0 0.816,0.227 1.254,0.254 L 211.438,210.75 c -5.427,3.417 -13.292,2.708 -16.823,0.542 L 41.426,85.585 c 0.433,-0.026 0.801,-0.252 1.241,-0.252 z M 384,213.874 c -59.711,5.414 -106.667,55.695 -106.667,116.793 0,3.6 0.221,7.148 0.54,10.667 H 42.667 c -11.76,0 -21.333,-9.573 -21.333,-21.333 V 106.667 c 0,-3.021 0.667,-5.874 1.805,-8.48 L 182.022,228.48 c 6.208,4.052 13.344,6.188 20.646,6.188 7.021,0 13.885,-1.979 19.927,-5.729 0.604,-0.323 1.177,-0.708 1.719,-1.156 L 382.194,98.185 c 1.139,2.608 1.807,5.461 1.807,8.483 v 107.206 z m 10.667,148.793 c -17.646,0 -32,-14.354 -32,-32 0,-17.646 14.354,-32 32,-32 17.646,0 32,14.354 32,32 0,17.646 -14.354,32 -32,32 z" />
	</g>
</g>
<g
   transform="translate(0,-64)"
   id="g8">
</g>
<g
   transform="translate(0,-64)"
   id="g10">
</g>
<g
   transform="translate(0,-64)"
   id="g12">
</g>
<g
   transform="translate(0,-64)"
   id="g14">
</g>
<g
   transform="translate(0,-64)"
   id="g16">
</g>
<g
   transform="translate(0,-64)"
   id="g18">
</g>
<g
   transform="translate(0,-64)"
   id="g20">
</g>
<g
   transform="translate(0,-64)"
   id="g22">
</g>
<g
   transform="translate(0,-64)"
   id="g24">
</g>
<g
   transform="translate(0,-64)"
   id="g26">
</g>
<g
   transform="translate(0,-64)"
   id="g28">
</g>
<g
   transform="translate(0,-64)"
   id="g30">
</g>
<g
   transform="translate(0,-64)"
   id="g32">
</g>
<g
   transform="translate(0,-64)"
   id="g34">
</g>
<g
   transform="translate(0,-64)"
   id="g36">
</g>
</svg>
