<svg width="24" height="35" viewBox="0 0 24 35" fill="none" xmlns="http://www.w3.org/2000/svg">
<path d="M5.83333 35C9.05333 35 11.6667 32.3867 11.6667 29.1667V23.3334H5.83333C2.61333 23.3334 0 25.9467 0 29.1667C0 32.3867 2.61333 35 5.83333 35Z" fill="#67D184"/>
<path d="M0 17.5C0 14.28 2.61333 11.6666 5.83333 11.6666H11.6667V23.3333H5.83333C2.61333 23.3333 0 20.72 0 17.5Z" fill="#A770FC"/>
<path d="M0 5.83333C0 2.61333 2.61333 0 5.83333 0H11.6667V11.6667H5.83333C2.61333 11.6667 0 9.05333 0 5.83333Z" fill="#EE4C26"/>
<path d="M11.6667 0H17.5001C20.7201 0 23.3334 2.61333 23.3334 5.83333C23.3334 9.05333 20.7201 11.6667 17.5001 11.6667H11.6667V0Z" fill="#F07060"/>
<path d="M23.3334 17.5C23.3334 20.72 20.7201 23.3333 17.5001 23.3333C14.2801 23.3333 11.6667 20.72 11.6667 17.5C11.6667 14.28 14.2801 11.6666 17.5001 11.6666C20.7201 11.6666 23.3334 14.28 23.3334 17.5Z" fill="#3DBEFC"/>
</svg>
