<?xml version="1.0" encoding="UTF-8" standalone="no"?>
<svg
   xmlns:dc="http://purl.org/dc/elements/1.1/"
   xmlns:cc="http://creativecommons.org/ns#"
   xmlns:rdf="http://www.w3.org/1999/02/22-rdf-syntax-ns#"
   xmlns:svg="http://www.w3.org/2000/svg"
   xmlns="http://www.w3.org/2000/svg"
   xmlns:sodipodi="http://sodipodi.sourceforge.net/DTD/sodipodi-0.dtd"
   xmlns:inkscape="http://www.inkscape.org/namespaces/inkscape"
   inkscape:version="1.0 (4035a4fb49, 2020-05-01)"
   sodipodi:docname="gith.svg"
   id="svg4"
   version="1.1"
   fill="none"
   viewBox="0 0 16.84559 17.999996"
   height="17.999996"
   width="16.845591">
  <metadata
     id="metadata10">
    <rdf:RDF>
      <cc:Work
         rdf:about="">
        <dc:format>image/svg+xml</dc:format>
        <dc:type
           rdf:resource="http://purl.org/dc/dcmitype/StillImage" />
        <dc:title />
      </cc:Work>
    </rdf:RDF>
  </metadata>
  <defs
     id="defs8" />
  <sodipodi:namedview
     inkscape:current-layer="svg4"
     inkscape:window-maximized="1"
     inkscape:window-y="27"
     inkscape:window-x="0"
     inkscape:cy="8.4999887"
     inkscape:cx="7.9989177"
     inkscape:zoom="9.6291306"
     showgrid="false"
     id="namedview6"
     inkscape:window-height="671"
     inkscape:window-width="1366"
     inkscape:pageshadow="2"
     inkscape:pageopacity="0"
     guidetolerance="10"
     gridtolerance="10"
     objecttolerance="10"
     borderopacity="1"
     bordercolor="#666666"
     pagecolor="#0c120f"
     inkscape:document-rotation="0" />
  <path
     id="path2"
     stroke-linejoin="round"
     stroke-linecap="round"
     stroke-width="2.11764"
     stroke="#ffffff"
     d="m 11.632474,16.941176 v -2.923202 c 0.02827,-0.360106 -0.02033,-0.722223 -0.142835,-1.062106 -0.1224,-0.339883 -0.315742,-0.649907 -0.567212,-0.909318 2.371766,-0.264389 4.864344,-1.163224 4.864344,-5.2873446 -2.11e-4,-1.0545889 -0.405847,-2.0687308 -1.132942,-2.8325243 0.34433,-0.9226383 0.319977,-1.9424661 -0.06798,-2.8476337 0,0 -0.891318,-0.26436512 -2.953378,1.1179067 -1.7312725,-0.4691969 -3.5561882,-0.4691969 -5.2874184,0 C 4.2829745,0.81468228 3.3916774,1.0790474 3.3916774,1.0790474 3.0037136,1.984215 2.9793712,3.0040428 3.3237009,3.9266811 2.591111,4.6961393 2.1850413,5.7194506 2.1906848,6.7818641 c 0,4.0939439 2.4926205,4.9927799 4.8643865,5.2873449 -0.2485062,0.25687 -0.4401635,0.563082 -0.5624895,0.898835 -0.1223365,0.335753 -0.172599,0.69353 -0.147526,1.04993 v 2.923202 m 0,-2.265989 c -3.776699,1.132942 -3.776699,-1.888413 -5.2873765,-2.266096 z" />
</svg>
