<svg width="20" height="20" viewBox="0 0 20 20" fill="none" xmlns="http://www.w3.org/2000/svg">
<path d="M20 10C20 4.47715 15.5228 0 10 0C4.47715 0 0 4.47715 0 10C0 15.5228 4.47715 20 10 20C15.5228 20 20 15.5228 20 10Z" fill="white"/>
<path fill-rule="evenodd" clip-rule="evenodd" d="M13.0929 19.5119C12.1189 19.8287 11.0794 20 10.0002 20C8.92026 20 7.88013 19.8285 6.90555 19.5113C7.35576 19.5653 7.52209 19.2722 7.52209 19.0191C7.52209 18.9089 7.52022 18.7146 7.51768 18.4546C7.5148 18.1538 7.51101 17.7652 7.50834 17.3173C4.72647 17.922 4.13959 15.9757 4.13959 15.9757C3.68522 14.82 3.02959 14.5122 3.02959 14.5122C2.12147 13.8912 3.09834 13.9037 3.09834 13.9037C4.10147 13.9744 4.62959 14.9351 4.62959 14.9351C5.52209 16.4643 6.97022 16.0228 7.54022 15.7663C7.63084 15.1196 7.88959 14.6786 8.17522 14.4284C5.95459 14.1758 3.62022 13.3177 3.62022 9.48319C3.62022 8.39053 4.00959 7.49748 4.64959 6.79757C4.54647 6.54436 4.20334 5.52736 4.74709 4.14952C4.74709 4.14952 5.58709 3.88055 7.49709 5.17523C8.29522 4.95315 9.15022 4.84257 10.0008 4.83807C10.8502 4.8424 11.7058 4.95315 12.5046 5.17523C14.4133 3.88055 15.2515 4.14952 15.2515 4.14952C15.7971 5.52736 15.454 6.54436 15.3508 6.79757C15.9921 7.49748 16.379 8.39053 16.379 9.48319C16.379 13.327 14.0408 14.1734 11.8133 14.421C12.1721 14.7299 12.4921 15.3403 12.4921 16.2741C12.4921 17.1687 12.4865 17.9474 12.4828 18.4635C12.481 18.7192 12.4796 18.9104 12.4796 19.0192C12.4796 19.2735 12.6419 19.5672 13.0929 19.5119Z" fill="black"/>
</svg>
