<?xml version="1.0" encoding="UTF-8" standalone="no"?>
<svg
   xmlns:dc="http://purl.org/dc/elements/1.1/"
   xmlns:cc="http://creativecommons.org/ns#"
   xmlns:rdf="http://www.w3.org/1999/02/22-rdf-syntax-ns#"
   xmlns:svg="http://www.w3.org/2000/svg"
   xmlns="http://www.w3.org/2000/svg"
   xmlns:sodipodi="http://sodipodi.sourceforge.net/DTD/sodipodi-0.dtd"
   xmlns:inkscape="http://www.inkscape.org/namespaces/inkscape"
   inkscape:version="1.0 (4035a4fb49, 2020-05-01)"
   sodipodi:docname="html5.svg"
   id="svg10"
   version="1.1"
   fill="none"
   viewBox="0 0 32 34.999977"
   height="34.999977"
   width="32">
  <metadata
     id="metadata16">
    <rdf:RDF>
      <cc:Work
         rdf:about="">
        <dc:format>image/svg+xml</dc:format>
        <dc:type
           rdf:resource="http://purl.org/dc/dcmitype/StillImage" />
      </cc:Work>
    </rdf:RDF>
  </metadata>
  <defs
     id="defs14" />
  <sodipodi:namedview
     inkscape:current-layer="svg10"
     inkscape:window-maximized="1"
     inkscape:window-y="27"
     inkscape:window-x="0"
     inkscape:cy="17.857178"
     inkscape:cx="16"
     inkscape:zoom="6.4305556"
     showgrid="false"
     id="namedview12"
     inkscape:window-height="671"
     inkscape:window-width="1366"
     inkscape:pageshadow="2"
     inkscape:pageopacity="0"
     guidetolerance="10"
     gridtolerance="10"
     objecttolerance="10"
     borderopacity="1"
     bordercolor="#666666"
     pagecolor="#ffffff" />
  <g
     transform="matrix(1.0231291,0,0,1,0,-0.142822)"
     id="g845">
    <path
       d="M 2.8449,31.6547 0,0.142822 H 31.2766 L 28.4317,31.6377 15.6124,35.1428"
       fill="#e44d26"
       id="path2" />
    <path
       d="M 15.6383,32.1641 V 2.37683 H 28.2978 L 25.882,29.3089"
       fill="#f16529"
       id="path4" />
    <path
       d="m 5.95752,6.10034 h 9.68088 v 3.94186 h -5.4519 l 0.3567,4.0374 h 5.0952 v 3.9333 H 7.01053 Z M 7.18037,19.9925 h 3.87233 l 0.2718,3.1519 4.3139,1.1807 v 4.1156 L 7.72386,26.1832"
       fill="#ebebeb"
       id="path6" />
    <path
       d="m 25.3192,6.10034 h -9.6809 v 3.94496 h 9.3236 z m -0.7061,7.98556 h -8.9748 v 3.945 h 4.7638 l -0.4507,5.1267 -4.3131,1.1818 v 4.1013 l 7.9114,-2.2419"
       fill="#ffffff"
       id="path8" />
  </g>
</svg>
