<?xml version="1.0" encoding="UTF-8" standalone="no"?>
<svg
   xmlns:dc="http://purl.org/dc/elements/1.1/"
   xmlns:cc="http://creativecommons.org/ns#"
   xmlns:rdf="http://www.w3.org/1999/02/22-rdf-syntax-ns#"
   xmlns:svg="http://www.w3.org/2000/svg"
   xmlns="http://www.w3.org/2000/svg"
   xmlns:sodipodi="http://sodipodi.sourceforge.net/DTD/sodipodi-0.dtd"
   xmlns:inkscape="http://www.inkscape.org/namespaces/inkscape"
   inkscape:version="1.0 (4035a4fb49, 2020-05-01)"
   sodipodi:docname="inkscape.svg"
   id="svg188"
   version="1.1"
   fill="none"
   viewBox="0 0 35.423237 34.927479"
   height="34.927479"
   width="35.423237">
  <metadata
     id="metadata192">
    <rdf:RDF>
      <cc:Work
         rdf:about="">
        <dc:format>image/svg+xml</dc:format>
        <dc:type
           rdf:resource="http://purl.org/dc/dcmitype/StillImage" />
      </cc:Work>
    </rdf:RDF>
  </metadata>
  <sodipodi:namedview
     inkscape:current-layer="svg188"
     inkscape:window-maximized="1"
     inkscape:window-y="27"
     inkscape:window-x="0"
     inkscape:cy="17.527204"
     inkscape:cx="18.128552"
     inkscape:zoom="9.0816327"
     showgrid="false"
     id="namedview190"
     inkscape:window-height="671"
     inkscape:window-width="1366"
     inkscape:pageshadow="2"
     inkscape:pageopacity="0"
     guidetolerance="10"
     gridtolerance="10"
     objecttolerance="10"
     borderopacity="1"
     bordercolor="#666666"
     pagecolor="#ffffff" />
  <g
     style="stroke-width:1.07685"
     transform="matrix(0.92837193,0,0,0.92889508,-5.0084089,-5.294033)"
     id="g4"
     filter="url(#filter0_f)"
     opacity="0.783251">
    <path
       style="stroke-width:1.12915"
       id="path2"
       fill="#000000"
       d="M 21.3853,8.47387 8.53318,21.6337 c -4.86631,4.8648 3.15052,4.4594 6.05162,6.2994 1.3414,0.873 -4.3047,1.9956 -3.1506,3.1496 1.123,1.1537 6.7692,2.214 7.8922,3.3367 1.123,1.1538 -2.2772,2.3701 -1.1542,3.5238 1.0919,1.1538 3.7121,0.0624 4.1801,2.6819 0.343,1.9334 4.8038,0.9668 6.8003,-0.686 1.2478,-1.0603 -2.1523,-1.0603 -1.0295,-2.2142 2.8076,-2.8378 5.3032,-1.2785 6.3325,-3.898 0.5615,-1.4033 -4.2424,-2.4012 -2.9634,-3.3056 3.0571,-2.1517 14.287,-3.2431 9.1087,-8.4197 L 27.2809,8.47387 c -1.6533,-1.55923 -4.3672,-1.55923 -5.8956,0 z M 36.1401,33.8269 c 0,0.6549 5.0847,1.0291 4.804,-0.156 -0.4055,-1.9957 -4.2424,-1.8398 -4.804,0.156 z m -21.68,3.4615 c 1.1542,0.9979 2.9011,-0.2184 3.4626,-1.6217 -1.123,-1.4656 -5.2719,0.0937 -3.4626,1.6217 z M 35.5163,35.199 c -1.435,1.3098 0.2495,2.6819 1.6532,1.7775 0.3744,-0.2495 -0.0312,-1.4656 -1.6532,-1.7775 z"
       opacity="0.783251" />
  </g>
  <g
     transform="translate(-5.5098052,-5.7917677)"
     id="g8"
     filter="url(#filter1_f)"
     opacity="0.576355">
    <path
       id="path6"
       fill="#000000"
       d="M 21.3853,8.77854 8.53318,21.9384 c -4.86631,4.8649 3.15052,4.4593 6.05162,6.2993 1.3414,0.8731 -4.3047,1.9958 -3.1506,3.1496 1.123,1.1538 6.7692,2.2142 7.8922,3.3368 1.123,1.1538 -2.2772,2.37 -1.1542,3.5238 1.0919,1.1538 3.7121,0.0623 4.1801,2.6819 0.343,1.9335 4.8038,0.9667 6.8003,-0.6861 1.2478,-1.0602 -2.1523,-1.0602 -1.0295,-2.2141 2.8076,-2.8378 5.3032,-1.2785 6.3325,-3.898 0.5615,-1.4033 -4.2424,-2.4012 -2.9634,-3.3056 3.0571,-2.1517 14.287,-3.2432 9.1087,-8.4198 L 27.2809,8.77854 c -1.6533,-1.55921 -4.3672,-1.55921 -5.8956,0 z M 36.1401,34.1316 c 0,0.6548 5.0847,1.029 4.804,-0.1559 -0.4055,-1.9958 -4.2424,-1.84 -4.804,0.1559 z m -21.68,3.4614 c 1.1542,0.9979 2.9011,-0.2182 3.4626,-1.6216 -1.123,-1.4656 -5.2719,0.0936 -3.4626,1.6216 z m 21.0562,-2.0893 c -1.435,1.3097 0.2495,2.6819 1.6532,1.7775 0.3744,-0.2494 -0.0312,-1.4657 -1.6532,-1.7775 z"
       opacity="0.576355" />
  </g>
  <path
     style="stroke-width:0.999999"
     id="path10"
     fill="#000000"
     d="M 14.845103,2.2944917 2.9135559,14.518556 c -4.5177456,4.518981 2.9248544,4.142408 5.6181542,5.851481 1.245318,0.811018 -3.9963627,1.853889 -2.9249286,2.925648 1.0425616,1.071759 6.2843345,2.05676 7.3268975,3.099537 1.042561,1.071667 -2.11409,2.201482 -1.071527,3.273241 1.013689,1.071852 3.446209,0.05787 3.880687,2.491111 0.318431,1.796019 4.459713,0.898056 6.313207,-0.637223 1.158423,-0.984906 -1.998134,-0.984906 -0.955758,-2.056573 2.606497,-2.636112 4.923342,-1.187686 5.878915,-3.621019 0.521281,-1.303519 -3.938525,-2.230463 -2.751138,-3.070555 2.838126,-1.998704 13.26365,-3.0125 8.456261,-7.821019 L 20.318413,2.2944917 c -1.534877,-1.44834247 -4.054386,-1.44834247 -5.47331,0 z M 28.543045,25.844759 c 0,0.608333 4.720494,0.955926 4.459899,-0.144722 -0.376455,-1.853981 -3.938525,-1.709166 -4.459899,0.144722 z M 8.4159421,29.06013 C 9.487469,29.987074 11.109242,28.857445 11.630523,27.553926 10.587961,26.192352 6.7362388,27.640776 8.4159421,29.06013 Z M 27.963927,27.119296 c -1.332214,1.216667 0.231629,2.491204 1.534785,1.651111 0.347582,-0.231667 -0.02897,-1.361388 -1.534785,-1.651111 z" />
  <path
     style="fill:url(#paint0_linear);stroke-width:0.999999"
     id="path12"
     fill="url(#paint0_linear)"
     d="m 3.9749634,15.196371 c -3.24407507,3.215742 2.4549126,2.309511 6.8388706,4.034283 L 19.873816,3.2985437 c -1.373619,-1.4031889 -3.127128,-1.2862504 -4.383866,0 z"
     opacity="0.5" />
  <path
     style="fill:url(#paint1_linear);stroke-width:0.999999"
     id="path14"
     fill="url(#paint1_linear)"
     d="m 19.594468,3.163278 4.7204,4.8086112 c 0.434478,0.4344442 0.434478,1.3324068 0.173792,1.5931477 L 22.142849,7.6532782 21.679592,10.463092 19.739294,9.4201293 16.582552,11.419019 15.540083,7.2186481 13.860379,10.868555 9.6612602,10.839574 c -0.810933,0 -0.6950721,-0.8400917 0.1448262,-1.6799996 1.6506446,-1.8250002 4.8652256,-4.9245373 5.8787286,-5.9962964 1.042563,-1.071787 2.866999,-1.0428241 3.909653,0 z" />
  <path
     style="fill:url(#paint2_radial);stroke-width:0.999999"
     id="path16"
     fill="url(#paint2_radial)"
     d="m 13.115453,25.879314 c 0,0 0.512369,0.782501 0.460101,1.150623 -0.102399,0.722494 -1.657979,1.082905 -1.313367,1.726072 0.340526,0.635272 1.567835,0.275232 2.597956,0.93967 1.025851,0.661653 0.750031,2.010129 1.495607,2.349269 1.453923,0.661559 5.272595,-1.141055 5.080794,-1.102598 -0.191709,0.03827 -3.768726,0.781665 -4.573902,0.129674 -0.918161,-0.743488 -1.181446,-1.26274 -1.858601,-1.702387 -0.634728,-0.411872 -1.526244,-0.580002 -1.733735,-0.917191 -0.207491,-0.337375 0.415632,-0.772469 0.458616,-1.422509 0.0259,-0.390415 -0.613469,-1.150623 -0.613469,-1.150623 z"
     clip-rule="evenodd"
     fill-rule="evenodd"
     opacity="0.216749" />
  <path
     style="fill:url(#paint3_radial);stroke-width:0.999999"
     id="path18"
     fill="url(#paint3_radial)"
     d="m 13.115453,25.879314 c 0,0 0.512369,0.782501 0.460101,1.150623 -0.102399,0.722494 -1.657979,1.082905 -1.313367,1.726072 0.340526,0.635272 1.567835,0.275232 2.597956,0.93967 1.025851,0.661653 0.750031,2.010129 1.495607,2.349269 1.453923,0.661559 5.272595,-1.141055 5.080794,-1.102598 -6.340873,0.02415 -5.157477,-1.61024 -7.602159,-2.684972 -0.353245,-0.155311 -0.148447,-0.577401 -0.105463,-1.227441 0.0259,-0.390415 -0.613469,-1.150623 -0.613469,-1.150623 z"
     clip-rule="evenodd"
     fill-rule="evenodd"
     opacity="0.275862" />
  <path
     style="fill:url(#paint4_radial);stroke-width:0.999999"
     id="path20"
     fill="url(#paint4_radial)"
     d="m 23.89088,22.542351 c 5.691199,-2.094936 7.519535,-2.382709 9.394846,-4.257497 -2.172111,1.83401 -6.764024,2.81771 -10.506849,4.449221 z"
     clip-rule="evenodd"
     fill-rule="evenodd"
     opacity="0.453202" />
  <path
     style="fill:url(#paint5_radial);stroke-width:0.999999"
     id="path22"
     fill="url(#paint5_radial)"
     d="m 23.89088,22.273901 c 9.372473,-3.322287 7.787927,-3.303337 9.394846,-4.257591 -2.979888,1.140962 -8.548913,1.26274 -10.506849,4.449407 z"
     clip-rule="evenodd"
     fill-rule="evenodd"
     opacity="0.512315" />
  <path
     style="fill:url(#paint6_linear);stroke-width:0.999999"
     id="path24"
     fill="url(#paint6_linear)"
     d="m 32.077821,24.930447 c 0,0.206401 -0.545139,0.373881 -1.217467,0.373881 -0.672512,0 -1.217559,-0.16748 -1.217559,-0.373881 0,-0.206585 0.545047,-0.374158 1.217559,-0.374158 0.672328,0 1.217467,0.167573 1.217467,0.374158 z"
     opacity="0.285714" />
  <path
     style="fill:url(#paint7_linear);stroke-width:0.999999"
     id="path26"
     fill="url(#paint7_linear)"
     d="m 32.499488,25.36192 c 0,0.444848 -0.734064,0.805352 -1.639412,0.805352 -0.905348,0 -1.639319,-0.360504 -1.639319,-0.805352 0,-0.444848 0.733971,-0.805631 1.639319,-0.805631 0.905348,0 1.639412,0.360783 1.639412,0.805631 z"
     opacity="0.620689" />
  <path
     style="fill:url(#paint8_radial);stroke-width:0.999999"
     id="path28"
     fill="url(#paint8_radial)"
     d="m 28.626506,25.808997 c 0.578283,0.534486 3.797227,0.808882 4.323614,-0.153361 -1.033371,0.733827 -3.331184,0.475966 -4.323614,0.153361 z"
     clip-rule="evenodd"
     fill-rule="evenodd" />
  <path
     style="fill:url(#paint9_linear);stroke-width:0.999999"
     id="path30"
     fill="url(#paint9_linear)"
     d="m 28.637925,27.593497 c 0.118182,0.232967 0.04141,0.50922 -0.171099,0.616972 -0.21269,0.107845 -0.48071,0.0064 -0.5988,-0.226558 -0.118089,-0.23278 -0.04141,-0.509126 0.171192,-0.616878 0.212597,-0.107938 0.480618,-0.0065 0.598707,0.226464 z"
     opacity="0.285714" />
  <path
     style="fill:url(#paint10_linear);stroke-width:0.999999"
     id="path32"
     fill="url(#paint10_linear)"
     d="m 28.866397,27.69679 c 0.176577,0.348336 0.06815,0.758257 -0.242304,0.915612 -0.310262,0.157541 -0.705007,0.0028 -0.881675,-0.345642 -0.176484,-0.348335 -0.06815,-0.758442 0.242304,-0.915798 0.310448,-0.157354 0.705006,-0.0026 0.881675,0.345828 z"
     opacity="0.620689" />
  <path
     style="fill:url(#paint11_radial);stroke-width:0.999999"
     id="path34"
     fill="url(#paint11_radial)"
     d="m 27.837018,28.673895 c 0.464651,0.363662 2.213518,0.410292 1.550011,-0.64679 0.172955,0.827924 -1.021396,0.740422 -1.550011,0.64679 z"
     clip-rule="evenodd"
     fill-rule="evenodd" />
  <path
     style="fill:url(#paint12_radial);stroke-width:0.999999"
     id="path36"
     fill="url(#paint12_radial)"
     d="m 6.2515358,23.194436 c 0,-0.09521 5.9583842,1.816268 6.9790362,2.838424 -0.839248,-0.8191 -5.0862715,-2.702898 -5.7327898,-2.723428 -0.6465182,-0.02043 -1.169563,-0.07673 -1.2462464,-0.114996 z"
     clip-rule="evenodd"
     fill-rule="evenodd" />
  <path
     style="fill:url(#paint13_linear);stroke-width:0.999999"
     id="path38"
     fill="url(#paint13_linear)"
     d="m 10.727959,27.289005 c 0.04827,0.1437 -0.391679,0.365428 -0.9827738,0.495287 -0.5910018,0.129766 -1.1093118,0.118434 -1.1575871,-0.02527 -0.048275,-0.143793 0.3916801,-0.365427 0.9827746,-0.495287 0.5910943,-0.129766 1.1093113,-0.118526 1.1575863,0.02527 z"
     opacity="0.285714" />
  <path
     style="fill:url(#paint14_linear);stroke-width:0.999999"
     id="path40"
     fill="url(#paint14_linear)"
     d="m 11.199108,27.507946 c 0.104071,0.309508 -0.456758,0.702151 -1.252652,0.877063 -0.7958004,0.174818 -1.5252222,0.06549 -1.6292927,-0.244114 -0.1039776,-0.309694 0.4569446,-0.702338 1.2526524,-0.877063 0.7958933,-0.174818 1.5253143,-0.06549 1.6292923,0.244114 z"
     opacity="0.620689" />
  <path
     style="fill:url(#paint15_radial);stroke-width:0.999999"
     id="path42"
     fill="url(#paint15_radial)"
     d="m 8.1592472,28.257564 c 0,0 0.3226093,0.866938 1.2079048,0.910875 0.895508,0.04449 1.917738,-1.075011 2.003519,-1.476758 -0.153366,0.34527 -1.010811,1.386004 -2.1186372,1.371328 -0.6288791,-0.0084 -1.0927866,-0.805445 -1.0927866,-0.805445 z"
     clip-rule="evenodd"
     fill-rule="evenodd"
     opacity="0.615763" />
  <path
     style="stroke:url(#paint16_radial);stroke-width:0.999999"
     id="path44"
     stroke="url(#paint16_radial)"
     d="m 17.54026,1.6336757 c -0.897271,0 -1.776533,0.3250111 -2.398171,0.9595393 L 3.2141998,14.813758 c -1.0905214,1.090802 -1.3524894,1.804843 -1.2850896,2.208727 0.033691,0.201942 0.1328129,0.377503 0.3438968,0.561239 0.211084,0.183735 0.5303975,0.36394 0.9140472,0.525104 0.7672994,0.322141 1.8006889,0.581581 2.814471,0.859971 1.0138749,0.278204 2.0069544,0.57192 2.7603282,1.050023 0.1149325,0.07478 0.2227165,0.166922 0.2986573,0.29864 0.075941,0.13181 0.1024923,0.305885 0.072413,0.45265 -0.060344,0.293438 -0.2410053,0.448099 -0.42538,0.588456 -0.3688422,0.280433 -0.8755476,0.513678 -1.3846667,0.7603 -0.5091192,0.246715 -1.0208379,0.499188 -1.2760472,0.706146 -0.1275584,0.103386 -0.1737913,0.196275 -0.1719345,0.190052 0.00176,-0.0063 -0.033886,-0.07914 0.027108,-0.01811 0.1598657,0.164229 0.6585871,0.445591 1.2942433,0.69695 0.6354707,0.251544 1.4132606,0.505783 2.1990347,0.760393 0.7857737,0.254703 1.5805537,0.506991 2.2535307,0.769404 0.672976,0.262599 1.221366,0.506712 1.583709,0.869074 0.180383,0.185408 0.307663,0.416052 0.334771,0.651806 0.02711,0.235846 -0.03667,0.457109 -0.126629,0.642609 -0.180012,0.37128 -0.469293,0.656729 -0.733043,0.932425 -0.263843,0.275697 -0.502807,0.539038 -0.58831,0.715156 -0.0427,0.08806 -0.0493,0.145558 -0.0453,0.181042 0.0042,0.03557 0.0103,0.07125 0.09061,0.153825 0.003,0.003 0.0061,0.006 0.0091,0.0091 0.345539,0.36552 1.096686,0.41698 1.945681,0.615578 0.424544,0.09939 0.868493,0.249688 1.248939,0.579445 0.380447,0.32948 0.665921,0.831455 0.78726,1.511591 0.05116,0.288143 0.203592,0.428407 0.570206,0.543125 0.366614,0.114812 0.925029,0.134969 1.538497,0.04533 1.226844,-0.179183 2.681696,-0.780736 3.520387,-1.47555 0.05218,-0.04431 0.03769,-0.0326 0.05441,-0.05424 -0.05644,-0.0404 -0.188738,-0.126515 -0.407278,-0.235382 -0.25818,-0.128745 -0.56315,-0.249037 -0.796357,-0.543218 -0.116696,-0.147044 -0.197,-0.379268 -0.163022,-0.606476 0.03398,-0.227207 0.158473,-0.416237 0.325859,-0.588455 1.374454,-1.389813 2.728577,-1.721707 3.74663,-1.991458 0.509119,-0.13469 0.935242,-0.258047 1.258036,-0.461568 0.322702,-0.203614 0.574849,-0.482003 0.78726,-1.0229 0.02348,-0.05852 0.02284,-0.07561 -0.009,-0.144907 -0.03184,-0.0692 -0.117067,-0.180113 -0.253352,-0.298639 -0.272477,-0.237333 -0.727101,-0.492222 -1.176526,-0.742281 -0.449517,-0.250151 -0.886316,-0.483304 -1.203634,-0.7786 -0.158658,-0.147601 -0.32493,-0.333566 -0.343869,-0.615485 -0.01903,-0.282013 0.165714,-0.536345 0.380076,-0.688033 0.795151,-0.560031 1.997113,-0.9863 3.30324,-1.439323 1.306034,-0.453022 2.710939,-0.921742 3.85525,-1.457343 1.144311,-0.535602 1.985881,-1.15248 2.253437,-1.77419 0.133779,-0.310994 0.158381,-0.625332 0.0182,-1.032003 -0.140185,-0.406669 -0.460287,-0.904 -1.031699,-1.475549 L 20.029039,2.6022625 c -0.0031,-0.00292 -0.0059,-0.00614 -0.009,-0.00904 C 19.337217,1.9536986 18.433446,1.633685 17.54026,1.633685 Z M 30.843736,24.807369 c -0.763121,0.02759 -1.465249,0.377039 -1.764741,0.923322 0.08514,0.03205 0.161722,0.06809 0.298657,0.09958 0.398364,0.09169 0.954459,0.150853 1.502291,0.162929 0.547925,0.01208 1.095943,-0.034 1.429879,-0.126701 0.146218,-0.0405 0.223737,-0.08156 0.262544,-0.108589 -0.07418,-0.316195 -0.250476,-0.539501 -0.552103,-0.706053 -0.312305,-0.172681 -0.74047,-0.260277 -1.176527,-0.244485 z m -20.416755,2.62515 c -0.6052054,-0.04208 -1.3658204,0.19897 -1.7375405,0.497795 -0.1857673,0.149646 -0.2644004,0.288144 -0.2715488,0.380382 -0.00706,0.09206 0.022467,0.214855 0.2715488,0.425341 0,0.003 0,0.0059 0,0.009 0.3918657,0.338954 0.8346992,0.303656 1.3394545,0.02731 0.422966,-0.231759 0.798401,-0.666482 1.049711,-1.122477 -0.169428,-0.109331 -0.371999,-0.197762 -0.651625,-0.217269 z M 28.0926,27.613561 c -0.129602,0.164786 -0.200065,0.318054 -0.208141,0.425434 -0.01114,0.148345 0.03091,0.262878 0.144732,0.371094 0.213526,0.203149 0.677341,0.290465 1.149325,0.03623 -0.0092,-0.05462 -0.02683,-0.137849 -0.09952,-0.2443 -0.144826,-0.212716 -0.483218,-0.441783 -0.986395,-0.588455 z" />
  <path
     style="fill:url(#paint17_linear);stroke-width:0.999999"
     id="path46"
     fill="url(#paint17_linear)"
     d="m 11.000065,20.771227 c -0.719953,0.212439 -3.0535078,1.094517 -2.7222646,1.768152 0.3172246,0.645396 5.7429086,0.905487 6.5756586,2.829043 0.363086,0.838792 -0.833214,1.471462 -0.530193,2.333756 0.233113,0.66416 2.038055,2.332734 3.179766,3.121458 0.895508,0.618831 2.071755,-0.498166 1.592808,-1.423995 -0.763122,-1.474993 2.608075,-3.281508 4.136268,-4.102001 0.891701,-0.478752 -1.838269,-2.82895 -1.838269,-2.82895 z"
     clip-rule="evenodd"
     fill-rule="evenodd"
     opacity="0.325123" />
  <path
     style="fill:url(#paint18_linear);stroke-width:0.999999"
     id="path48"
     fill="url(#paint18_linear)"
     d="m 11.266322,21.42229 c 0.646333,0.474851 1.921916,0.188379 2.688102,0.533557 1.838826,0.828203 4.099132,1.751153 3.683222,0.117227 l -0.467899,0.388742 -0.0091,-0.740887 -1.086566,0.265386 c 0,0 -0.841755,-0.675678 -1.227493,-0.89852 -0.08059,-0.04663 -0.494637,0.374438 -0.494637,0.374438 l -0.07427,-0.447171 c -0.537993,-0.05722 -1.070506,-0.08258 -1.539427,-0.07877 -1.123794,0.0091 -1.881996,0.184757 -1.471934,0.485998 z"
     clip-rule="evenodd"
     fill-rule="evenodd" />
  <path
     style="fill:url(#paint19_radial);stroke-width:0.999999"
     id="path50"
     fill="url(#paint19_radial)"
     d="m 23.338314,22.928214 c -0.248896,0.916262 3.058429,2.161261 2.810553,2.793559 -0.545697,1.392043 -3.531991,0.443826 -5.815507,3.35935 -0.327158,0.417723 0.459451,1.909622 0.353431,1.73276 -0.10602,-0.176861 -0.914261,-1.409227 -0.707141,-2.015702 0.649768,-1.901727 6.931132,-2.610752 5.780322,-3.518469 -0.661744,-0.522039 -3.041161,-1.964334 -2.421658,-2.351498 z"
     clip-rule="evenodd"
     fill-rule="evenodd"
     opacity="0.477832" />
  <path
     style="stroke-width:0.999999"
     id="path52"
     fill="#ffffff"
     d="m 30.779958,24.811456 c 0,0.08295 -0.162187,0.150109 -0.362344,0.150109 -0.200064,0 -0.362343,-0.06715 -0.362343,-0.150109 0,-0.08295 0.162279,-0.150481 0.362343,-0.150481 0.200157,0 0.362344,0.06754 0.362344,0.150481 z"
     opacity="0.586207" />
  <path
     style="stroke-width:0.999999"
     id="path54"
     fill="#ffffff"
     d="m 28.358392,27.586995 c 0,0.08304 -0.102956,0.150295 -0.229864,0.150295 -0.126909,0 -0.229866,-0.06725 -0.229866,-0.150295 0,-0.08295 0.102957,-0.150203 0.229866,-0.150203 0.126908,0 0.229864,0.06725 0.229864,0.150203 z"
     opacity="0.586207" />
  <path
     style="stroke-width:0.999999"
     id="path56"
     fill="#ffffff"
     d="m 10.027875,27.45472 c 0,0.08304 -0.1820544,0.150202 -0.4065347,0.150202 -0.2244804,0 -0.4065342,-0.06716 -0.4065342,-0.150202 0,-0.08304 0.1820538,-0.150295 0.4065342,-0.150295 0.2244803,0 0.4065347,0.06725 0.4065347,0.150295 z"
     opacity="0.586207" />
  <path
     style="fill:url(#paint20_linear);stroke-width:0.999999"
     id="path58"
     fill="url(#paint20_linear)"
     d="M 9.7981025,20.841823 C 7.7265331,22.123326 4.505918,22.589725 8.0302964,23.441057 7.6104866,22.505846 8.9393582,22.608953 9.7981025,20.841823 Z"
     opacity="0.251231" />
  <path
     style="fill:url(#paint21_linear);stroke-width:0.999999"
     id="path60"
     fill="url(#paint21_linear)"
     d="m 17.151643,32.511346 c 0,0 3.194807,-0.300962 3.933884,-1.222983 0.43225,-0.539409 -1.71851,-1.168922 -1.254138,-1.69737 1.746454,-1.987928 3.214395,-1.904978 5.239359,-2.737454 2.024966,-0.832755 1.277719,-1.240446 0.622753,-1.60606 -1.121753,-0.625982 -3.61833,-1.293114 -2.792543,-2.778975 0.831078,-1.495057 8.109143,-3.571508 8.109143,-3.571508 2.205534,-0.753706 1.928693,-2.116674 0.848439,-3.253362 L 25.353531,9.1723003 c 0,0 0.322887,6.1373957 -0.989923,8.7698847 -1.622145,3.253176 -10.258603,6.883111 -6.646308,7.28458 1.272613,0.141471 1.88376,0.575729 2.40402,1.555993 1.071341,2.018302 -2.969677,5.728588 -2.969677,5.728588 z"
     opacity="0.363158" />
  <defs
     id="defs186">
    <filter
       color-interpolation-filters="sRGB"
       filterUnits="userSpaceOnUse"
       height="37.601101"
       width="38.1563"
       y="5.6992798"
       x="5.3948302"
       id="filter0_f">
      <feFlood
         id="feFlood62"
         result="BackgroundImageFix"
         flood-opacity="0" />
      <feBlend
         id="feBlend64"
         result="shape"
         in2="BackgroundImageFix"
         in="SourceGraphic"
         mode="normal" />
      <feGaussianBlur
         id="feGaussianBlur66"
         result="effect1_foregroundBlur"
         stdDeviation="0.802583" />
    </filter>
    <filter
       color-interpolation-filters="sRGB"
       filterUnits="userSpaceOnUse"
       height="48.302299"
       width="48.857399"
       y="0.65341097"
       x="0.044280101"
       id="filter1_f">
      <feFlood
         id="feFlood69"
         result="BackgroundImageFix"
         flood-opacity="0" />
      <feBlend
         id="feBlend71"
         result="shape"
         in2="BackgroundImageFix"
         in="SourceGraphic"
         mode="normal" />
      <feGaussianBlur
         id="feGaussianBlur73"
         result="effect1_foregroundBlur"
         stdDeviation="3.47786" />
    </filter>
    <linearGradient
       gradientTransform="matrix(0.92837193,0,0,0.92889508,-5.0084089,-5.2940331)"
       gradientUnits="userSpaceOnUse"
       y2="23.037001"
       x2="22.6441"
       y1="15.1669"
       x1="14.7764"
       id="paint0_linear">
      <stop
         id="stop76"
         stop-color="white" />
      <stop
         id="stop78"
         stop-opacity="0"
         stop-color="white"
         offset="1" />
    </linearGradient>
    <linearGradient
       gradientTransform="matrix(0.92837193,0,0,0.92889508,-5.0084089,-5.2940331)"
       gradientUnits="userSpaceOnUse"
       y2="19.866301"
       x2="32.5811"
       y1="10.508"
       x1="23.2257"
       id="paint1_linear">
      <stop
         id="stop81"
         stop-color="white" />
      <stop
         id="stop83"
         stop-opacity="0"
         stop-color="white"
         offset="1" />
    </linearGradient>
    <radialGradient
       gradientTransform="matrix(7.3691008,0,0,4.9338169,12.212519,31.7216)"
       gradientUnits="userSpaceOnUse"
       r="1"
       cy="0"
       cx="0"
       id="paint2_radial">
      <stop
         id="stop86"
         stop-color="white" />
      <stop
         id="stop88"
         stop-opacity="0"
         stop-color="white"
         offset="1" />
    </radialGradient>
    <radialGradient
       gradientTransform="matrix(9.4023652,0,0,6.2951313,16.097849,31.898461)"
       gradientUnits="userSpaceOnUse"
       r="1"
       cy="0"
       cx="0"
       id="paint3_radial">
      <stop
         id="stop91"
         stop-color="white" />
      <stop
         id="stop93"
         stop-opacity="0"
         stop-color="white"
         offset="1" />
    </radialGradient>
    <radialGradient
       gradientTransform="matrix(5.2534525,0,0,2.224648,28.032255,20.509464)"
       gradientUnits="userSpaceOnUse"
       r="1"
       cy="0"
       cx="0"
       id="paint4_radial">
      <stop
         id="stop96"
         stop-color="white" />
      <stop
         id="stop98"
         stop-opacity="0"
         stop-color="white"
         offset="1" />
    </radialGradient>
    <radialGradient
       gradientTransform="matrix(5.2534525,0,0,2.224648,29.144352,21.123279)"
       gradientUnits="userSpaceOnUse"
       r="1"
       cy="0"
       cx="0"
       id="paint5_radial">
      <stop
         id="stop101"
         stop-color="white" />
      <stop
         id="stop103"
         stop-opacity="0"
         stop-color="white"
         offset="1" />
    </radialGradient>
    <linearGradient
       gradientTransform="matrix(0.92837193,0,0,0.92889508,-5.0084089,-5.2940331)"
       gradientUnits="userSpaceOnUse"
       y2="32.940601"
       x2="38.9356"
       y1="31.898001"
       x1="38.914902"
       id="paint6_linear">
      <stop
         id="stop106"
         stop-color="white" />
      <stop
         id="stop108"
         stop-opacity="0"
         stop-color="white"
         offset="1" />
    </linearGradient>
    <linearGradient
       gradientTransform="matrix(0.92837193,0,0,0.92889508,-5.0084089,-5.2940331)"
       gradientUnits="userSpaceOnUse"
       y2="33.361401"
       x2="38.9561"
       y1="31.778299"
       x1="38.9561"
       id="paint7_linear">
      <stop
         id="stop111"
         stop-color="white" />
      <stop
         id="stop113"
         stop-opacity="0"
         stop-color="white"
         offset="1" />
    </linearGradient>
    <radialGradient
       gradientTransform="matrix(2.161779,0,0,0.3194721,30.788313,25.97499)"
       gradientUnits="userSpaceOnUse"
       r="1"
       cy="0"
       cx="0"
       id="paint8_radial">
      <stop
         id="stop116"
         stop-color="white" />
      <stop
         id="stop118"
         stop-opacity="0"
         stop-color="white"
         offset="1" />
    </radialGradient>
    <linearGradient
       gradientTransform="matrix(0.92837193,0,0,0.92889508,-5.0084089,-5.2940331)"
       gradientUnits="userSpaceOnUse"
       y2="35.896702"
       x2="36.158798"
       y1="34.989799"
       x1="35.645599"
       id="paint9_linear">
      <stop
         id="stop121"
         stop-color="white" />
      <stop
         id="stop123"
         stop-opacity="0"
         stop-color="white"
         offset="1" />
    </linearGradient>
    <linearGradient
       gradientTransform="matrix(0.92837193,0,0,0.92889508,-5.0084089,-5.2940331)"
       gradientUnits="userSpaceOnUse"
       y2="36.080799"
       x2="36.168598"
       y1="34.668499"
       x1="35.452702"
       id="paint10_linear">
      <stop
         id="stop126"
         stop-color="white" />
      <stop
         id="stop128"
         stop-opacity="0"
         stop-color="white"
         offset="1" />
    </linearGradient>
    <radialGradient
       gradientTransform="matrix(0.83366392,-0.422794,0.14436365,0.28497669,28.697805,28.734737)"
       gradientUnits="userSpaceOnUse"
       r="1"
       cy="0"
       cx="0"
       id="paint11_radial">
      <stop
         id="stop131"
         stop-color="white" />
      <stop
         id="stop133"
         stop-opacity="0"
         stop-color="white"
         offset="1" />
    </radialGradient>
    <radialGradient
       gradientTransform="matrix(3.4895273,0,0,1.4208844,9.5686087,24.151663)"
       gradientUnits="userSpaceOnUse"
       r="1"
       cy="0"
       cx="0"
       id="paint12_radial">
      <stop
         id="stop136"
         stop-opacity="0.330049"
         stop-color="white" />
      <stop
         id="stop138"
         stop-opacity="0"
         stop-color="white"
         offset="1" />
    </radialGradient>
    <linearGradient
       gradientTransform="matrix(0.92837193,0,0,0.92889508,-5.0084089,-5.2940331)"
       gradientUnits="userSpaceOnUse"
       y2="35.573101"
       x2="16.0686"
       y1="34.831001"
       x1="15.8931"
       id="paint13_linear">
      <stop
         id="stop141"
         stop-color="white" />
      <stop
         id="stop143"
         stop-opacity="0"
         stop-color="white"
         offset="1" />
    </linearGradient>
    <linearGradient
       gradientTransform="matrix(0.92837193,0,0,0.92889508,-5.0084089,-5.2940331)"
       gradientUnits="userSpaceOnUse"
       y2="35.8685"
       x2="16.148701"
       y1="34.739899"
       x1="15.901"
       id="paint14_linear">
      <stop
         id="stop146"
         stop-color="white" />
      <stop
         id="stop148"
         stop-opacity="0"
         stop-color="white"
         offset="1" />
    </linearGradient>
    <radialGradient
       gradientTransform="matrix(1.9029483,-0.52739827,0.19716156,0.71219654,9.6594963,29.11159)"
       gradientUnits="userSpaceOnUse"
       r="1"
       cy="0"
       cx="0"
       id="paint15_radial">
      <stop
         id="stop151"
         stop-color="white" />
      <stop
         id="stop153"
         stop-opacity="0"
         stop-color="white"
         offset="1" />
    </radialGradient>
    <radialGradient
       gradientTransform="matrix(27.322264,0,0,26.897922,18.986478,5.0171668)"
       gradientUnits="userSpaceOnUse"
       r="1"
       cy="0"
       cx="0"
       id="paint16_radial">
      <stop
         id="stop156"
         stop-color="white" />
      <stop
         id="stop158"
         stop-opacity="0"
         stop-color="white"
         offset="1" />
    </radialGradient>
    <linearGradient
       gradientTransform="matrix(0.92837193,0,0,0.92889508,-5.0084089,-5.2940331)"
       gradientUnits="userSpaceOnUse"
       y2="35.904099"
       x2="26.0779"
       y1="33.567402"
       x1="17.243601"
       id="paint17_linear">
      <stop
         id="stop161"
         stop-color="white" />
      <stop
         id="stop163"
         stop-opacity="0"
         stop-color="white"
         offset="1" />
    </linearGradient>
    <linearGradient
       gradientTransform="matrix(0.92837193,0,0,0.92889508,-5.0084089,-5.2940331)"
       gradientUnits="userSpaceOnUse"
       y2="30.4715"
       x2="20.935101"
       y1="28.1982"
       x1="21.9268"
       id="paint18_linear">
      <stop
         id="stop166"
         stop-color="#EEEEEC" />
      <stop
         id="stop168"
         stop-opacity="0"
         stop-color="#EEEEEC"
         offset="1" />
    </linearGradient>
    <radialGradient
       gradientTransform="matrix(4.2938409,0,0,5.4581597,23.123025,26.78991)"
       gradientUnits="userSpaceOnUse"
       r="1"
       cy="0"
       cx="0"
       id="paint19_radial">
      <stop
         id="stop171"
         stop-color="white" />
      <stop
         id="stop173"
         stop-opacity="0"
         stop-color="white"
         offset="1" />
    </radialGradient>
    <linearGradient
       gradientTransform="matrix(0.92837193,0,0,0.92889508,-5.0084089,-5.2940331)"
       gradientUnits="userSpaceOnUse"
       y2="30.078501"
       x2="15.3583"
       y1="28.9741"
       x1="13.9687"
       id="paint20_linear">
      <stop
         id="stop176"
         stop-color="white" />
      <stop
         id="stop178"
         stop-opacity="0"
         stop-color="white"
         offset="1" />
    </linearGradient>
    <linearGradient
       gradientTransform="matrix(0.92837193,0,0,0.92889508,-5.0084089,-5.2940331)"
       gradientUnits="userSpaceOnUse"
       y2="23.872"
       x2="26.1113"
       y1="34.988998"
       x1="30.238899"
       id="paint21_linear">
      <stop
         id="stop181"
         stop-color="#729FCF" />
      <stop
         id="stop183"
         stop-opacity="0"
         stop-color="#729FCF"
         offset="1" />
    </linearGradient>
  </defs>
</svg>
