<?xml version="1.0" encoding="UTF-8" standalone="no"?>
<svg
   xmlns:dc="http://purl.org/dc/elements/1.1/"
   xmlns:cc="http://creativecommons.org/ns#"
   xmlns:rdf="http://www.w3.org/1999/02/22-rdf-syntax-ns#"
   xmlns:svg="http://www.w3.org/2000/svg"
   xmlns="http://www.w3.org/2000/svg"
   xmlns:sodipodi="http://sodipodi.sourceforge.net/DTD/sodipodi-0.dtd"
   xmlns:inkscape="http://www.inkscape.org/namespaces/inkscape"
   inkscape:version="1.0 (4035a4fb49, 2020-05-01)"
   sodipodi:docname="instagr.svg"
   id="svg14"
   version="1.1"
   fill="none"
   viewBox="0 0 17.996519 18"
   height="18"
   width="17.996519">
  <metadata
     id="metadata20">
    <rdf:RDF>
      <cc:Work
         rdf:about="">
        <dc:format>image/svg+xml</dc:format>
        <dc:type
           rdf:resource="http://purl.org/dc/dcmitype/StillImage" />
        <dc:title />
      </cc:Work>
    </rdf:RDF>
  </metadata>
  <defs
     id="defs18" />
  <sodipodi:namedview
     inkscape:current-layer="svg14"
     inkscape:window-maximized="1"
     inkscape:window-y="27"
     inkscape:window-x="0"
     inkscape:cy="7.5"
     inkscape:cx="7.5"
     inkscape:zoom="10.913015"
     showgrid="false"
     id="namedview16"
     inkscape:window-height="671"
     inkscape:window-width="1366"
     inkscape:pageshadow="2"
     inkscape:pageopacity="0"
     guidetolerance="10"
     gridtolerance="10"
     objecttolerance="10"
     borderopacity="1"
     bordercolor="#666666"
     pagecolor="#12070e"
     inkscape:document-rotation="0" />
  <mask
     fill="#ffffff"
     id="path-1-inside-1">
    <path
       id="path2"
       d="M 14.959,4.41005 C 14.9239,3.61304 14.795,3.06511 14.6103,2.59031 14.4199,2.08633 14.1268,1.63511 13.7429,1.26002 13.3678,0.879081 12.9136,0.583078 12.4155,0.395586 11.938,0.210956 11.3929,0.0820704 10.5959,0.0469301 9.79292,0.00881369 9.53801,0 7.50147,0 5.46494,0 5.21003,0.00881369 4.41005,0.043954 3.61304,0.0790944 3.0651,0.208095 2.59042,0.39261 2.08632,0.583078 1.63511,0.876105 1.26001,1.26002 0.879079,1.63511 0.583191,2.0893 0.395586,2.58745 0.210956,3.06511 0.0820703,3.61007 0.04693,4.40708 0.00881368,5.21004 0,5.46495 0,7.50149 c 0,2.03654 0.00881368,2.29145 0.0439539,3.09141 0.0351403,0.797 0.1641401,1.345 0.3487701,1.8198 0.190467,0.5039 0.486355,0.9552 0.867286,1.3303 0.3751,0.3809 0.82929,0.6769 1.32744,0.8644 C 3.0651,14.792 3.61006,14.9209 4.40718,14.956 5.20705,14.9913 5.46208,15 7.49861,15 9.53515,15 9.79006,14.9913 10.59,14.956 c 0.797,-0.0351 1.345,-0.164 1.8197,-0.3486 1.008,-0.3898 1.8051,-1.1868 2.1948,-2.1947 0.1845,-0.4777 0.3135,-1.0228 0.3487,-1.8198 0.0351,-0.79996 0.0439,-1.05487 0.0439,-3.09141 0,-2.03654 -0.003,-2.29145 -0.0381,-3.09144 z m -1.3508,6.12425 c -0.0323,0.7326 -0.1553,1.1282 -0.2579,1.3919 -0.252,0.6535 -0.7707,1.1721 -1.4241,1.4242 -0.2638,0.1025 -0.6622,0.2256 -1.3919,0.2577 -0.79117,0.0353 -1.02846,0.044 -3.02985,0.044 -2.00139,0 -2.24165,-0.0087 -3.02996,-0.044 C 3.74192,13.576 3.34634,13.4529 3.08261,13.3504 2.75742,13.2302 2.46142,13.0397 2.22116,12.7906 1.97209,12.5474 1.78162,12.2544 1.66144,11.9292 1.55888,11.6654 1.43583,11.2669 1.40366,10.5373 1.36841,9.74612 1.35971,9.50872 1.35971,7.50733 c 0,-2.0014 0.0087,-2.24166 0.04395,-3.02986 C 1.43583,3.74491 1.55888,3.34932 1.66144,3.0856 1.78162,2.76029 1.97209,2.4644 2.22414,2.22403 2.46726,1.97496 2.76029,1.78449 3.08559,1.66442 3.34931,1.56186 3.74788,1.43881 4.47747,1.40653 5.26864,1.37139 5.50603,1.36258 7.50731,1.36258 c 2.00437,0 2.24165,0.00881 3.02999,0.04395 0.7325,0.03228 1.1281,0.15533 1.3918,0.25789 0.3252,0.12007 0.6212,0.31054 0.8615,0.55961 0.2491,0.24323 0.4395,0.53626 0.5597,0.86157 0.1026,0.26372 0.2256,0.66217 0.2579,1.39187 0.0352,0.79118 0.044,1.02846 0.044,3.02986 0,2.00139 -0.0088,2.23581 -0.044,3.02697 z" />
  </mask>
  <mask
     fill="#ffffff"
     id="path-3-inside-2">
    <path
       id="path7"
       d="m 7.5015,3.64807 c -2.12731,0 -3.85331,1.72588 -3.85331,3.8533 0,2.12742 1.726,3.85333 3.85331,3.85333 2.12742,0 3.8533,-1.72591 3.8533,-3.85333 0,-2.12742 -1.72588,-3.8533 -3.8533,-3.8533 z m 0,6.35283 c -1.38009,0 -2.49955,-1.11932 -2.49955,-2.49953 0,-1.3802 1.11946,-2.49954 2.49955,-2.49954 1.3802,0 2.4995,1.11934 2.4995,2.49954 0,1.38021 -1.1193,2.49953 -2.4995,2.49953 z" />
  </mask>
  <g
     transform="scale(1.2)"
     id="g848">
    <path
       d="m 14.959,4.41005 3.9961,-0.17553 v -6.5e-4 z m -0.3487,-1.81974 -3.7417,1.41408 0.0068,0.01784 0.0069,0.01778 z m -0.8674,-1.33029 -2.8501,2.8065 0.0271,0.02755 0.0276,0.02702 z M 12.4155,0.395586 10.9731,4.12645 10.9897,4.1329 11.0065,4.1392 Z M 10.5959,0.0469301 10.4062,4.04245 l 0.0135,6e-4 z M 4.41005,0.043954 4.23451,-3.95219 l -6.5e-4,3e-5 z M 2.59042,0.39261 4.00422,4.13442 4.02197,4.12772 4.03965,4.12085 Z M 1.26001,1.26002 4.06652,4.11019 4.09407,4.08306 4.12109,4.05541 Z M 0.395586,2.58745 4.12657,4.02959 4.13281,4.01343 4.13892,3.99722 Z m -0.348656,1.81963 3.99552,0.18966 6e-4,-0.01347 z m -0.0029761,6.18582 -3.9961439,0.1756 3e-5,6e-4 z M 0.392724,12.4127 4.13443,10.9986 4.12769,10.9807 4.12078,10.963 Z M 1.26001,13.743 4.1102,10.9365 4.08853,10.9145 4.06652,10.8928 Z M 2.58745,14.6074 4.02959,10.8764 4.01306,10.87 3.99647,10.8638 Z m 1.81973,0.3486 -0.17616,3.9962 h 3e-5 z m 6.18282,0 0.1761,3.9962 h 10e-5 z m 1.8197,-0.3486 -1.4425,-3.7309 -0.0075,0.003 z m 2.1948,-2.1947 3.7308,1.4425 5e-4,-0.0012 z m 0.3487,-1.8198 3.9961,0.1762 v -6e-4 z m -1.345,-0.0586 -3.99605,-0.1775 -6e-5,0.0014 z m -0.2579,1.3919 -3.72801,-1.4498 -0.00398,0.0103 z m -1.4241,1.4242 -1.4395,-3.73208 -0.0103,0.00401 z m -1.3919,0.2577 -0.1761,-3.9961 -0.002,9e-5 z m -6.05981,0 L 4.6532,9.61212 4.64995,9.61197 Z M 3.08261,13.3504 4.5324,9.62233 4.50095,9.6101 4.46929,9.5984 Z M 2.22116,12.7906 5.10007,10.0136 5.0586,9.9706 5.01586,9.92886 Z M 1.66144,11.9292 5.41339,10.5425 5.40169,10.5108 5.38946,10.4794 Z m -0.25778,-1.3919 3.99612,-0.1762 -8e-5,-0.0019 z m 0,-6.05983 3.99601,0.17874 1.4e-4,-0.00328 z M 1.66144,3.0856 5.38946,4.53538 5.40177,4.50371 5.41355,4.47184 Z M 2.22414,2.22403 4.98473,5.1187 5.03655,5.06928 5.08656,5.01804 Z M 3.08559,1.66442 4.47068,5.41695 4.50313,5.40497 4.53538,5.39243 Z m 1.39188,-0.25789 0.17679,3.99609 6.9e-4,-3e-5 z m 6.05983,0 -0.1782,3.99603 0.0021,9e-5 z m 1.3918,0.25789 -1.4497,3.72801 0.032,0.01246 0.0322,0.0119 z M 12.7906,2.22403 9.91169,5.00106 9.95317,5.04405 9.9959,5.08579 Z M 13.3503,3.0856 9.59822,4.47184 9.60999,4.50371 9.62231,4.53538 Z m 0.2579,1.39187 -3.99608,0.17677 3e-5,7.2e-4 z m 5.3469,-0.2436 C 18.9028,3.04732 18.6974,2.06388 18.3384,1.14062 l -7.4561,2.89939 c 0.014,0.03597 0.0255,0.0715 0.0374,0.13018 0.0132,0.06529 0.0334,0.19338 0.0432,0.41605 z M 18.352,1.17623 C 17.959,0.136085 17.3465,-0.81143 16.5383,-1.60106 L 10.9475,4.12109 C 10.9292,4.10321 10.9121,4.08235 10.8975,4.06002 10.883,4.03779 10.8739,4.0183 10.8686,4.00439 Z M 16.5931,-1.54649 C 15.8142,-2.33757 14.8692,-2.95484 13.8245,-3.34803 L 11.0065,4.1392 C 10.9581,4.121 10.9215,4.09574 10.8928,4.06652 Z M 13.858,-3.33528 c -0.9181,-0.35494 -1.8951,-0.5614 -3.0859,-0.61391 l -0.3524,7.99224 c 0.2222,0.00979 0.3492,0.02992 0.414,0.043 0.0581,0.01174 0.0963,0.02376 0.1394,0.0404 z M 10.7855,-3.94857 C 9.88733,-3.99121 9.55788,-4 7.50147,-4 V 4 C 9.51813,4 9.69851,4.00884 10.4062,4.04243 Z M 7.50147,-4 C 5.44403,-4 5.12128,-3.99114 4.23451,-3.95219 L 4.58558,4.0401 C 5.29878,4.00877 5.48586,4 7.50147,4 Z M 4.23386,-3.95216 C 3.04681,-3.89983 2.06363,-3.69419 1.1412,-3.33563 L 4.03965,4.12085 C 4.07594,4.10674 4.11167,4.09512 4.17042,4.08326 4.23575,4.07008 4.36378,4.04988 4.58624,4.04007 Z M 1.17662,-3.3492 c -1.040416,0.39311 -1.988019,1.0056 -2.77769,1.81382 L 4.12109,4.05541 C 4.10321,4.07371 4.08232,4.09092 4.05994,4.1055 4.03766,4.12001 4.01814,4.12917 4.00422,4.13442 Z m -2.72311,1.75904 c -0.79147,0.779331 -1.40822,1.724217 -1.80126,2.76784 L 4.13892,3.99722 C 4.12109,4.04455 4.09611,4.08105 4.06652,4.11019 Z M -3.3354,1.14531 C -3.69017,2.06316 -3.89668,3.0399 -3.94919,4.23089 L 4.04305,4.58327 C 4.05284,4.36111 4.07297,4.23407 4.08604,4.16934 4.09778,4.11124 4.10982,4.07292 4.12657,4.02959 Z m -0.61317,3.0721 C -3.99121,5.11563 -4,5.44508 -4,7.50149 H 4 C 4,5.48483 4.00884,5.30445 4.04243,4.59674 Z M -4,7.50149 c 0,2.05745 0.00886,2.3802 0.04781,3.26701 L 4.0401,10.4174 C 4.00877,9.70418 4,9.51711 4,7.50149 Z m 0.04784,3.26761 c 0.05233,1.1871 0.25798,2.1704 0.61683,3.0933 L 4.12078,10.963 C 4.10669,10.9267 4.09509,10.8911 4.08325,10.8324 4.07008,10.7672 4.04988,10.6392 4.04007,10.4167 Z m 0.60318,3.0576 c 0.39709,1.0508 1.0144,1.9904 1.80249,2.7664 l 5.61301,-5.7003 c 0.02622,0.0258 0.05175,0.063 0.06791,0.1058 z m 1.75881,2.7228 c 0.778963,0.7911 1.723932,1.4083 2.7686,1.8015 l 2.81804,-7.4872 c 0.04837,0.0182 0.08496,0.0434 0.11373,0.0727 z m 2.73547,1.7889 c 0.91789,0.3548 1.89465,0.5613 3.08572,0.6138 L 4.58335,10.9599 C 4.36111,10.9501 4.23405,10.93 4.16932,10.9169 4.11122,10.9052 4.07291,10.8932 4.02959,10.8764 Z m 3.08575,0.6138 C 5.11834,18.9913 5.4417,19 7.49861,19 V 11 C 5.48246,11 5.29577,10.9913 4.58332,10.9599 Z M 7.49861,19 c 2.05693,0 2.38016,-0.0087 3.26749,-0.0478 L 10.4139,10.9599 C 9.70134,10.9913 9.51475,11 7.49861,11 Z m 3.26759,-0.0478 c 1.1865,-0.0523 2.1701,-0.2577 3.0935,-0.6169 l -2.9,-7.4558 c -0.0358,0.0139 -0.0712,0.0254 -0.1299,0.0372 -0.0652,0.0132 -0.1933,0.0334 -0.4159,0.0432 z m 3.0859,-0.6139 c 2.0592,-0.7962 3.6871,-2.424 4.4832,-4.4831 l -7.4616,-2.8851 c 0.0166,-0.0431 0.0505,-0.077 0.0935,-0.0936 z m 4.4837,-4.4843 c 0.3542,-0.917 0.5609,-1.8934 0.6135,-3.0849 L 10.957,10.4167 c -0.0097,0.222 -0.0299,0.349 -0.043,0.4139 -0.0117,0.0583 -0.0239,0.0969 -0.0408,0.1407 z m 0.6135,-3.0855 c 0.039,-0.88681 0.0478,-1.20956 0.0478,-3.26701 h -8 c 0,2.01562 -0.0088,2.20269 -0.0401,2.91591 z m 0.0478,-3.26701 c 0,-2.03213 -0.0025,-2.36832 -0.042,-3.26697 l -7.9923,0.35107 c 0.0309,0.70133 0.0343,0.87495 0.0343,2.9159 z M 9.61209,10.3582 c -0.00762,0.1729 -0.02259,0.2328 -0.01861,0.2141 0.00191,-0.009 0.00645,-0.0278 0.01424,-0.053 0.00365,-0.0118 0.0072,-0.0224 0.01023,-0.031 0.003,-0.0084 0.00481,-0.0131 0.00436,-0.0119 l 7.45599,2.8996 c 0.256,-0.6581 0.4739,-1.4832 0.526,-2.6656 z m 0.00622,0.1285 c 0.1543,-0.4 0.46839,-0.71407 0.86839,-0.86836 l 2.8789,7.46406 c 1.707,-0.6584 3.0583,-2.0098 3.7167,-3.7167 z M 10.4764,9.62233 c 0,10e-6 0.0053,-0.00204 0.0141,-0.00517 0.009,-0.00315 0.0196,-0.00671 0.0313,-0.01031 0.0248,-0.00764 0.0429,-0.01197 0.051,-0.01368 0.0168,-0.0036 -0.0437,0.0113 -0.2146,0.01883 l 0.3522,7.9922 c 1.1774,-0.0519 2.0055,-0.2691 2.6656,-0.5258 z M 10.3562,9.61209 C 9.65263,9.64344 9.48381,9.65208 7.50445,9.65208 v 8.00002 c 2.02343,0 2.32917,-0.0088 3.20795,-0.0479 z M 7.50445,9.65208 C 5.52467,9.65208 5.35334,9.64343 4.6532,9.61212 L 4.29578,17.6041 c 0.87648,0.0392 1.18567,0.048 3.20867,0.048 z M 4.64995,9.61197 C 4.47717,9.60439 4.41742,9.58943 4.43623,9.59344 4.44529,9.59537 4.46418,9.59992 4.48943,9.60772 4.50126,9.61138 4.51184,9.61493 4.52045,9.61797 4.52894,9.62097 4.53358,9.62279 4.5324,9.62233 L 1.63283,17.0784 c 0.65817,0.2559 1.48352,0.4739 2.6662,0.5259 z M 4.46929,9.5984 c 0.22036,0.08144 0.43955,0.21695 0.63078,0.4152 l -5.757815,5.5541 c 0.6717438,0.6963 1.482939,1.2128 2.353685,1.5346 z m 0.54657,0.33046 c 0.1731,0.16904 0.31085,0.37914 0.39753,0.61364 l -7.5039,2.7733 c 0.32705,0.885 0.84573,1.6811 1.516978,2.3366 z m 0.3736,0.55054 c -5e-5,-10e-5 4.8e-4,0.0012 0.00143,0.0038 9.5e-4,0.0025 0.00224,0.0061 0.00377,0.0104 0.00316,0.009 0.00672,0.0196 0.01031,0.0313 0.00764,0.0248 0.01195,0.0428 0.01366,0.0509 0.00358,0.0168 -0.01131,-0.0438 -0.01885,-0.2147 l -7.99223,0.3524 c 0.05189,1.1771 0.26915,2.0053 0.52587,2.6655 z M 5.3997,10.3592 C 5.36835,9.65563 5.35971,9.4867 5.35971,7.50733 h -8 c 0,2.02342 0.00876,2.32928 0.04792,3.20807 z M 5.35971,7.50733 c 0,-1.9798 0.00865,-2.15112 0.03996,-2.85112 L -2.59234,4.29874 c -0.0392,0.87639 -0.04795,1.18559 -0.04795,3.20859 z m 0.0401,-2.8544 C 5.4074,4.48015 5.42236,4.4204 5.41835,4.43921 5.41642,4.44827 5.41187,4.46716 5.40407,4.49241 5.40041,4.50423 5.39686,4.51482 5.39382,4.52343 5.39082,4.53191 5.389,4.53656 5.38946,4.53538 L -2.06658,1.63581 C -2.32254,2.29398 -2.54056,3.11934 -2.59249,4.30202 Z M 5.41355,4.47184 C 5.33135,4.69432 5.19196,4.92107 4.98473,5.1187 L -0.536454,-0.670644 C -1.24778,0.00773119 -1.7681,0.826258 -2.09067,1.69935 Z M 5.08656,5.01804 C 4.91697,5.19179 4.70614,5.33004 4.47068,5.41695 L 1.7005,-2.08812 c -0.886072,0.32706 -1.6829549,0.84624 -2.338786,1.518132 z M 4.53538,5.39243 C 4.53549,5.39239 4.53413,5.39292 4.5316,5.39386 4.52905,5.39481 4.52552,5.3961 4.52119,5.39763 4.51223,5.40078 4.50161,5.40434 4.48998,5.40792 4.46523,5.41555 4.44721,5.41985 4.43924,5.42154 4.42256,5.42509 4.48327,5.41018 4.65426,5.40262 L 4.30067,-2.58956 C 3.12379,-2.53749 2.29583,-2.32028 1.6358,-2.0636 Z M 4.65495,5.40259 C 5.35917,5.37131 5.52858,5.36258 7.50731,5.36258 v -8 c -2.02383,0 -2.32921,0.00889 -3.20733,0.04789 z M 7.50731,5.36258 c 1.98213,0 2.15102,0.00874 2.85179,0.03998 L 10.7154,-2.5895 C 9.8396,-2.62854 9.53392,-2.63742 7.50731,-2.63742 Z M 10.3612,5.40265 C 10.5341,5.41027 10.594,5.42524 10.5753,5.42126 10.5663,5.41935 10.5475,5.41481 10.5223,5.40702 10.5105,5.40337 10.4999,5.39982 10.4913,5.39679 10.4828,5.39379 10.4782,5.39197 10.4794,5.39243 l 2.8995,-7.45603 c -0.658,-0.25592 -1.4832,-0.47389 -2.6655,-0.52599 z m 0.1824,0.01414 C 10.3224,5.3351 10.1029,5.19927 9.91169,5.00106 L 15.6695,-0.553001 C 14.9978,-1.24936 14.1863,-1.76612 13.3147,-2.08796 Z M 9.9959,5.08579 C 9.82273,4.91668 9.68491,4.70648 9.59822,4.47184 L 17.1024,1.69935 C 16.7754,0.814097 16.2566,0.0178478 15.5853,-0.637734 Z M 9.62231,4.53538 C 9.62232,4.5354 9.62026,4.53012 9.61714,4.52127 9.61399,4.51234 9.61044,4.50171 9.60685,4.49008 9.59922,4.46531 9.59491,4.44726 9.59321,4.43925 9.58964,4.4225 9.60455,4.48318 9.61212,4.65424 L 17.6043,4.30071 C 17.5522,3.12362 17.335,2.29576 17.0783,1.63581 Z M 9.61215,4.65496 c 0.03128,0.70422 0.04002,0.87352 0.04002,2.85237 h 8.00003 c 0,-2.02396 -0.0089,-2.32922 -0.0479,-3.20734 z m 0.04002,2.85237 c 0,1.97864 -0.00874,2.14517 -0.04002,2.84947 l 7.99215,0.355 c 0.039,-0.87801 0.0479,-1.18033 0.0479,-3.20447 z"
       fill="#ffffff"
       mask="url(#path-1-inside-1)"
       id="path5" />
    <path
       d="m 7.5015,1.64807 c -3.23184,0 -5.85331,2.62128 -5.85331,5.8533 h 4 c 0,-1.02281 0.83053,-1.8533 1.85331,-1.8533 z m -5.85331,5.8533 c 0,3.23203 2.62147,5.85333 5.85331,5.85333 V 9.35468 c -1.02278,0 -1.85331,-0.83049 -1.85331,-1.85331 z M 7.5015,13.3547 c 3.232,0 5.8533,-2.6213 5.8533,-5.85333 h -4 c 0,1.02286 -0.83045,1.85331 -1.8533,1.85331 z m 5.8533,-5.85333 c 0,-3.23199 -2.6213,-5.8533 -5.8533,-5.8533 v 4 c 1.02285,0 1.8533,0.83045 1.8533,1.8533 z M 7.5015,8.00092 c -0.27558,0 -0.49955,-0.22397 -0.49955,-0.49955 h -4 c 0,2.48484 2.01495,4.49953 4.49955,4.49953 z M 7.00195,7.50137 c 0,-0.27557 0.22397,-0.49954 0.49955,-0.49954 v -4 c -2.4846,0 -4.49955,2.01471 -4.49955,4.49954 z M 7.5015,7.00183 c 0.27563,0 0.49954,0.22391 0.49954,0.49954 H 12.001 C 12.001,5.0166 9.98627,3.00183 7.5015,3.00183 Z m 0.49954,0.49954 c 0,0.27564 -0.22391,0.49955 -0.49954,0.49955 v 3.99998 c 2.48477,0 4.4995,-2.01475 4.4995,-4.49953 z"
       fill="#ffffff"
       mask="url(#path-3-inside-2)"
       id="path10" />
    <path
       d="m 12.4069,3.49576 c 0,0.49678 -0.4028,0.89958 -0.8997,0.89958 -0.4968,0 -0.8996,-0.4028 -0.8996,-0.89958 0,-0.49688 0.4028,-0.89957 0.8996,-0.89957 0.4969,0 0.8997,0.40269 0.8997,0.89957 z"
       fill="#ffffff"
       id="path12" />
  </g>
</svg>
