<svg width="35" height="35" viewBox="0 0 35 35" fill="none" xmlns="http://www.w3.org/2000/svg">
<path d="M0 0H35V35H0V0Z" fill="#F7DF1E"/>
<path d="M8.75014 30.0362L11.3911 28.3039C11.9007 29.283 12.3641 30.1113 13.476 30.1113C14.5417 30.1113 15.2137 29.6596 15.2137 27.9023V15.951H18.4568V27.9518C18.4568 31.5924 16.4878 33.2496 13.6149 33.2496C11.0205 33.2496 9.51451 31.7933 8.75 30.0359L8.75014 30.0362ZM20.2184 29.6594L22.8591 28.0025C23.5543 29.2328 24.4577 30.1367 26.0561 30.1367C27.4 30.1367 28.2569 29.4084 28.2569 28.404C28.2569 27.1991 27.3766 26.7721 25.8938 26.0693L25.0832 25.6924C22.7434 24.6131 21.1912 23.2572 21.1912 20.3951C21.1912 17.7587 23.0446 15.75 25.9405 15.75C28.0022 15.75 29.4848 16.5284 30.5504 18.562L28.0251 20.3197C27.469 19.2402 26.867 18.8133 25.9403 18.8133C24.9904 18.8133 24.388 19.4662 24.388 20.3197C24.388 21.3742 24.9904 21.8012 26.3803 22.454L27.1911 22.8306C29.948 24.1112 31.5 25.4167 31.5 28.3539C31.5 31.5178 29.2067 33.25 26.1255 33.25C23.114 33.25 21.168 31.6933 20.2182 29.6596" fill="black"/>
</svg>
