<svg width="371" height="116" viewBox="0 0 371 116" fill="none" xmlns="http://www.w3.org/2000/svg">
<path d="M57.9161 113.832C88.7977 113.832 113.832 88.7977 113.832 57.9161C113.832 27.0345 88.7977 2 57.9161 2C27.0345 2 2 27.0345 2 57.9161C2 88.7977 27.0345 113.832 57.9161 113.832Z" fill="white" stroke="white" stroke-width="3"/>
<path d="M17.8844 35.8175L26.6108 52.9773L5.39478 71.3909L11.5615 78.8299H29.8632L44.9111 65.3959L48.0968 71.3909L52.8228 78.8299H70.9908L66.8986 71.3909L60.9747 60.9579L76.9385 46.3511L73.0547 37.7778L70.3873 35.8175H57.6754L43.0549 48.7735L40.6838 44.4572L35.5344 35.8175H17.8844ZM76.1172 35.8175L79.8984 44.4572L81.9611 45.9599L76.4966 71.3909L80.2645 78.8299H99.1643L103.941 51.905L106.598 59.4752L115.003 65.3664H137.961L138.569 59.4752L136.836 51.3603H104.037L105.262 44.4572L102.366 35.8175H76.1172ZM164.252 41.5053L165.06 49.9529L169.967 53.2081L169.623 62.4923H154.927L154.02 56.2338H140.074L138.864 68.864L140.528 76.3888H183.833L184.069 51.7095L183.925 43.3232L181.071 41.5053H164.252ZM186.868 41.5053L186.913 49.9529L192.938 53.7614L193.142 76.3888H207.509L208.183 68.864L207.213 43.0991L204.68 41.5053H186.868ZM210.477 41.5053L209.725 49.9529L215.886 53.7995L217.173 76.3888H230.982L232.476 68.864L232.02 63.4702L253.344 76.3888H261.338L263.89 68.864L261.209 50.3519L267.099 53.7995L270.798 76.3888H307.778L311.897 73.1009L316.215 65.4617L312.97 52.3388L315.585 53.7614L321.579 76.3888H364.832L371 68.864L361.395 41.5053H347.855L342.468 49.9529L346.513 62.4504H338.601L332.478 41.5053H312.787L310.92 45.2575L304.092 41.5053H263.052L260.946 48.5473L260.176 43.2275L257.254 41.5053H246.387L244.423 49.9529L244.857 53.6518L224.463 41.5053H210.477Z" fill="black"/>
<path d="M17.8842 35.8175L26.6104 52.9769L5.39478 71.3905H24.335L40.4505 57.0031L48.0962 71.3905H66.8984L56.4429 52.9769L73.0543 37.7774L70.3871 35.8175H57.6752L42.783 49.014L35.5335 35.8175H17.8842ZM76.1172 35.8175L83.0536 40.8713L76.4962 71.3905H96.0556L102.366 35.8175H76.1172ZM164.251 41.5051L170.254 45.4857L169.623 62.4919H153.592L154.019 56.2334H140.074L138.863 68.8637H183.68L183.924 43.3228L181.07 41.5051H164.251ZM186.868 41.5051L193.103 45.4467L193.314 68.8637H208.183L207.213 43.0985L204.679 41.5051H186.868ZM210.476 41.5051L216.854 45.4857L218.183 68.8637H232.476L231.229 54.0871L255.617 68.8637H263.89L260.176 43.2271L257.254 41.5051H246.387L248.034 55.5432L224.463 41.5051H210.476ZM263.052 41.5051L269.852 45.4857L273.68 68.8637H311.952L316.215 65.4613L311.266 45.4467L304.092 41.5051H263.052ZM312.787 41.5051L320.032 45.4467L326.235 68.8637H371L361.395 41.5051H347.853L354.632 62.4504H338.601L332.478 41.5051H312.787ZM283.87 47.4025H299.429L302.787 62.4919H286.756L283.87 47.4025ZM103.749 51.3599L112.447 57.4564H136.207L136.836 51.3599H103.749Z" fill="#AA4400"/>
</svg>
