<svg width="35" height="35" viewBox="0 0 35 35" fill="none" xmlns="http://www.w3.org/2000/svg">
<path d="M35 17.5C35 18.0407 34.9758 18.5751 34.9271 19.1029C34.89 19.5208 34.837 19.9336 34.77 20.3414C33.4128 28.6551 26.1972 35 17.5 35C13.07 35 9.02502 33.3543 5.94213 30.64C4.80287 29.6379 3.79497 28.4893 2.94787 27.2236C1.08568 24.4429 0 21.0979 0 17.5C0 7.83502 7.83502 0 17.5 0C27.165 0 35 7.83502 35 17.5Z" fill="#F2F2F2"/>
<path d="M30.5422 19.4736C30.0028 19.6689 30.0246 19.6724 29.7393 19.1747C29.3749 18.5408 29.1811 17.8741 29.1643 17.1492C29.1506 16.527 29.3284 15.9487 29.552 15.3814C29.7305 14.9303 29.4983 14.7711 29.0902 14.7301C28.7934 14.7008 28.4871 14.7036 28.1895 14.7329C27.4157 14.8086 27.3394 14.8726 27.134 15.5921C27.0121 16.0189 26.9148 16.4492 26.7123 16.8543C26.2128 17.8518 25.6453 18.8125 25.0631 19.7662C24.9586 19.938 24.8722 20.1228 24.7249 20.2695C24.3031 19.6647 24.1442 18.9967 24.1086 18.296C24.0731 17.6043 24.2944 16.9614 24.5376 16.3254C24.6196 16.1113 24.5514 15.9785 24.3582 15.8861C24.2726 15.8451 24.1768 15.8068 24.0831 15.7998C23.5867 15.7623 23.0917 15.7678 22.6074 15.8978C22.3897 15.9555 22.2473 16.0723 22.1987 16.3065C22.1044 16.7646 21.9571 17.2095 21.7582 17.6378C21.2064 18.8236 20.6585 20.0115 20.1074 21.1981C19.6283 22.2289 19.1565 23.2625 18.5888 24.2525C18.5489 24.3226 18.5156 24.4443 18.4154 24.4199C18.3137 24.3956 18.3494 24.276 18.345 24.1941C18.3123 23.6102 18.4785 23.0534 18.6201 22.4959C18.8445 21.6138 19.0898 20.7358 19.3279 19.8565C19.3961 19.6042 19.2814 19.4345 19.0629 19.3136C18.7486 19.1405 18.4357 19.1321 18.0953 19.3747C18.1418 19.0161 18.1621 18.7012 18.1462 18.3863C18.1099 17.6842 17.7701 17.2276 17.1785 17.1219C16.7466 17.0447 16.3379 17.165 15.9518 17.3401C15.0516 17.7482 14.3279 18.3634 13.7197 19.1099C13.6485 19.1968 13.5767 19.2767 13.4736 19.3302C12.3318 19.9259 11.1907 20.5216 10.0518 21.1229C9.92698 21.1897 9.8464 21.1709 9.75638 21.0784C9.18291 20.4897 8.51732 20.0038 7.85819 19.511C6.93703 18.8215 5.98398 18.1681 5.18912 17.3366C4.72458 16.8501 4.33694 16.3169 4.14312 15.6733C3.82662 14.6209 4.06329 13.6408 4.5903 12.7093C5.21386 11.6076 6.13863 10.7568 7.15843 9.99907C8.77791 8.7965 10.5541 7.8414 12.4262 7.05528C14.5225 6.17596 16.6973 5.60944 19.0135 5.69492C19.931 5.72897 20.8217 5.88118 21.639 6.31147C22.2175 6.61596 22.6008 7.05595 22.709 7.7017C22.836 8.45795 22.6466 9.15659 22.296 9.81904C21.5127 11.299 20.2679 12.3472 18.7965 13.1681C17.5712 13.8514 16.2494 14.2852 14.8506 14.5124C14.0775 14.6383 13.3015 14.714 12.5241 14.6007C11.632 14.4707 10.8074 14.1851 10.1969 13.4969C10.1265 13.4176 10.0372 13.3627 9.91748 13.4183C9.7948 13.4753 9.80423 13.5796 9.81584 13.6797C9.82452 13.7485 9.84419 13.818 9.86954 13.8834C10.0329 14.3053 10.3385 14.6237 10.6963 14.9017C11.6269 15.6267 12.7295 15.8395 13.8873 15.861C15.0204 15.8826 16.136 15.745 17.2402 15.492C19.7307 14.9219 21.8168 13.7521 23.3397 11.7473C24.25 10.549 24.8264 9.22824 24.7756 7.71707C24.743 6.75852 24.4061 5.91185 23.6766 5.22373C22.8091 4.40694 21.7327 3.99614 20.5777 3.7494C19.2915 3.47552 17.9922 3.4366 16.6798 3.58675C15.538 3.71741 14.4223 3.94126 13.3363 4.29924C11.6748 4.84766 10.0699 5.52123 8.53393 6.34007C6.96023 7.17835 5.47721 8.13837 4.17647 9.34087C3.02522 10.4051 2.03584 11.5792 1.47835 13.0368C1.24028 13.661 1.06897 14.3027 1.22868 14.9776C1.43341 15.8465 1.88051 16.5985 2.4685 17.277C3.35769 18.3044 4.44871 19.1135 5.57384 19.8864C6.47757 20.5079 7.42339 21.0736 8.29155 21.7417C8.53761 21.9307 8.53614 21.9307 8.24654 22.076C7.90828 22.2449 7.56636 22.4076 7.23394 22.5876C5.89333 23.3134 4.59766 24.1003 3.53999 25.1937C3.01952 25.7324 2.666 26.3372 2.50129 27.0087C3.36215 28.2404 4.3864 29.3581 5.54417 30.3334C7.51932 30.186 9.03132 29.2016 10.1485 27.5737C10.6878 26.7876 10.9404 25.8979 11.0355 24.9593C11.119 24.1322 11.0311 23.3314 10.7771 22.5418C10.7328 22.4027 10.5681 22.2645 10.6327 22.1421C10.6929 22.0294 10.8744 21.9724 11.0079 21.8988C11.5465 21.5992 12.0866 21.3038 12.6411 20.9986C12.6651 21.1127 12.6187 21.1793 12.5984 21.2516C12.2804 22.3688 12.059 23.4948 12.3008 24.6557C12.451 25.3786 12.7014 26.059 13.1776 26.6575C13.6676 27.2734 14.7615 27.2033 15.2057 26.6409C15.6274 26.1071 15.9069 25.5051 16.1979 24.9059C16.3577 24.5777 16.5042 24.2441 16.6567 23.9126C16.6284 24.3116 16.6298 24.7008 16.6452 25.0887C16.6603 25.471 16.7243 25.8485 16.9318 26.1863C17.1816 26.5922 17.6513 26.7105 18.0875 26.4935C18.5477 26.2647 18.8613 25.888 19.1052 25.4793C20.1511 23.7213 21.1216 21.9258 21.9252 20.0511C22.0965 19.6529 22.2721 19.2552 22.466 18.8125C22.4957 18.9577 22.5154 19.0467 22.5335 19.1358C22.712 20.029 23.0301 20.8741 23.4902 21.6686C23.5889 21.839 23.578 21.9565 23.4533 22.1199C23.0294 22.6724 22.5647 23.1924 22.1066 23.7178C21.7219 24.1599 21.3103 24.5826 20.9852 25.0691C20.6935 25.5072 20.861 25.9554 21.3467 26.0548C21.4962 26.0855 21.6537 26.0945 21.8069 26.0924C22.6556 26.0827 23.4387 25.8401 24.1683 25.4425C25.1504 24.9066 25.7326 24.121 25.7057 23.0026C25.6933 22.4938 25.5496 22.0051 25.3354 21.5386C25.2883 21.4351 25.286 21.3601 25.3566 21.2626C26.0367 20.3298 26.6377 19.3518 27.1902 18.3453C27.2882 18.1681 27.357 17.9714 27.5152 17.7983C27.5364 17.8685 27.553 17.9123 27.5624 17.9575C27.7381 18.7916 27.9747 19.607 28.4191 20.3514C28.5409 20.5551 28.48 20.6587 28.3116 20.7949C27.7317 21.2668 27.2424 21.8173 26.8584 22.4479C26.5593 22.9386 26.3546 23.4627 26.3569 24.0376C26.359 24.6771 26.87 25.0538 27.5211 24.9038C28.1998 24.7479 28.8291 24.4832 29.3939 24.0877C30.6242 23.225 30.985 22.3152 30.5996 21.0452C30.4487 20.5454 30.4515 20.5537 30.9749 20.4022C32.1196 20.0712 33.281 20.0574 34.4482 20.2395C34.5803 20.2604 34.711 20.284 34.8402 20.3111C34.9084 19.9143 34.962 19.5124 34.9998 19.1058C33.5067 18.7562 32.0157 18.9377 30.5422 19.4736ZM6.35425 28.4162C6.02254 28.5289 5.67776 28.5768 5.32493 28.5503C4.88575 28.517 4.60704 28.2202 4.57869 27.7739C4.54674 27.2595 4.70575 26.7952 4.9409 26.3434C5.36842 25.5231 6.08631 24.9663 6.8188 24.4201C7.53086 23.8883 8.296 23.4343 9.06974 22.9929C9.30419 22.8595 9.30781 22.8609 9.36151 23.1286C9.43119 23.4718 9.49364 23.816 9.47037 24.1282C9.53143 26 8.11162 27.8205 6.35425 28.4162ZM17.0088 18.9773C16.8853 19.7662 16.6161 20.5176 16.3294 21.26C15.9388 22.2734 15.5584 23.2918 15.067 24.2663C14.9544 24.4909 14.8361 24.7141 14.654 24.8968C14.4821 25.0699 14.3295 25.0498 14.2105 24.8384C13.9782 24.4255 14.0072 23.966 13.9695 23.6324C13.9804 21.9586 14.5669 20.5905 15.5331 19.3609C15.8031 19.0182 16.1479 18.7394 16.6045 18.6276C16.9144 18.5518 17.0574 18.6714 17.0088 18.9773ZM23.774 23.9327C23.4431 24.4805 22.9661 24.8788 22.381 25.1623C22.3186 25.1923 22.2381 25.2451 22.1814 25.1749C22.1278 25.1089 22.2141 25.065 22.2532 25.0233C22.8348 24.4152 23.4089 23.802 23.9265 23.1423C23.9345 23.1319 23.9541 23.1305 23.9983 23.1125C23.9933 23.4177 23.9235 23.686 23.774 23.9327ZM27.7888 23.9091C27.7026 23.948 27.6023 24.0211 27.5182 23.9585C27.4252 23.8897 27.4622 23.7681 27.4906 23.6748C27.6226 23.2502 27.8006 22.8435 28.0458 22.4647C28.2519 22.1456 28.5076 21.8669 28.7884 21.6069C28.9017 21.5026 28.9523 21.5152 28.9908 21.6653C29.0309 21.8189 29.0344 21.9724 29.0373 22.129C29.0302 22.9846 28.5764 23.5539 27.7888 23.9091Z" fill="#CD6699"/>
</svg>
