<?xml version="1.0" encoding="UTF-8" standalone="no"?>
<svg
   xmlns:dc="http://purl.org/dc/elements/1.1/"
   xmlns:cc="http://creativecommons.org/ns#"
   xmlns:rdf="http://www.w3.org/1999/02/22-rdf-syntax-ns#"
   xmlns:svg="http://www.w3.org/2000/svg"
   xmlns="http://www.w3.org/2000/svg"
   xmlns:sodipodi="http://sodipodi.sourceforge.net/DTD/sodipodi-0.dtd"
   xmlns:inkscape="http://www.inkscape.org/namespaces/inkscape"
   inkscape:version="1.0 (4035a4fb49, 2020-05-01)"
   sodipodi:docname="sql.svg"
   id="svg8"
   version="1.1"
   fill="none"
   viewBox="0 0 33 35"
   height="35"
   width="33">
  <metadata
     id="metadata14">
    <rdf:RDF>
      <cc:Work
         rdf:about="">
        <dc:format>image/svg+xml</dc:format>
        <dc:type
           rdf:resource="http://purl.org/dc/dcmitype/StillImage" />
        <dc:title></dc:title>
      </cc:Work>
    </rdf:RDF>
  </metadata>
  <defs
     id="defs12" />
  <sodipodi:namedview
     inkscape:current-layer="svg8"
     inkscape:window-maximized="1"
     inkscape:window-y="27"
     inkscape:window-x="0"
     inkscape:cy="17.5"
     inkscape:cx="29.896626"
     inkscape:zoom="6.6142857"
     showgrid="false"
     id="namedview10"
     inkscape:window-height="671"
     inkscape:window-width="1366"
     inkscape:pageshadow="2"
     inkscape:pageopacity="0"
     guidetolerance="10"
     gridtolerance="10"
     objecttolerance="10"
     borderopacity="1"
     bordercolor="#666666"
     pagecolor="#66190b" />
  <rect
     y="2.5560703"
     x="2.5560722"
     height="29.887859"
     width="27.887856"
     id="rect844"
     style="fill:#ffffff;fill-opacity:1;stroke:#ffffff;stroke-width:5.11214;stroke-linecap:round" />
  <g
     id="g849">
    <path
       d="M20.2734 31.9785C20.3182 31.9809 20.3638 31.9852 20.4098 31.9852H30.7967C32.0115 31.9852 33 30.9769 33 29.7376V5.17334C33 3.93426 32.0115 2.92564 30.7967 2.92564H20.4098C20.364 2.92564 20.3182 2.92975 20.2734 2.93242V0L0 2.76021V32.1683L20.2734 35V31.9785ZM20.2734 4.22385C20.3182 4.21713 20.3631 4.21004 20.4098 4.21004H30.7967C31.3174 4.21004 31.7409 4.64216 31.7409 5.17334V29.7376C31.7409 30.2688 31.3173 30.7008 30.7967 30.7008H20.4098C20.3634 30.7008 20.3182 30.6933 20.2734 30.6864V4.22385ZM3.27276 19.6005C2.58793 19.5821 1.91906 19.3698 1.58723 19.1575L1.85711 17.9415C2.21674 18.1512 2.77357 18.3654 3.35342 18.3755C3.98358 18.3868 4.31965 18.1059 4.31965 17.6703C4.31965 17.2551 4.02886 17.0156 3.29991 16.7259C2.30529 16.3421 1.66592 15.7407 1.66592 14.7912C1.66592 13.6772 2.50888 12.802 3.9294 12.7637C4.62025 12.7448 5.13417 12.8906 5.50377 13.0612L5.18966 14.2942C4.94072 14.1679 4.50157 13.9872 3.9022 13.9975C3.30837 14.0074 3.0231 14.3063 3.0231 14.649C3.0231 15.07 3.36246 15.2536 4.1469 15.5743C5.23501 16.0076 5.7537 16.6271 5.7537 17.5778C5.75405 18.7078 4.94987 19.646 3.27276 19.6005ZM12.3982 20.9646C11.4178 20.637 10.6109 20.3094 9.71616 19.8895C9.56782 19.8237 9.40986 19.7885 9.25312 19.7737C7.77757 19.6316 6.42833 18.4696 6.42833 16.2569C6.42833 14.2252 7.64293 12.6636 9.59721 12.6109C11.6617 12.5554 12.8208 14.1712 12.8208 16.1132C12.8208 17.7283 12.09 18.854 11.1845 19.253V19.2948C11.7119 19.464 12.306 19.6047 12.8523 19.7345L12.3982 20.9646ZM18.4401 19.9035L13.8665 19.7828V12.6132L15.4938 12.5704V18.4477L18.4401 18.4966V19.9035Z"
       fill="black"
       id="path2" />
    <path
       d="M9.49117 13.0003C8.54125 13.0234 8.00012 14.3673 8.00012 16.0125C7.9905 17.6836 8.55028 18.9764 9.48143 18.9997C10.4367 19.0232 11 17.7387 11 15.9735C11 14.3287 10.4556 12.9771 9.49117 13.0003Z"
       fill="black"
       id="path4" />
    <path
       d="M25.4988 24C28.0238 24 30 22.9804 30 21.679V20.2145C30 20.0062 29.9467 19.7948 29.8393 19.5878L29.8349 19.5794C29.9397 19.3803 30 19.1706 30 18.9518V17.4874C30 17.2791 29.9467 17.0678 29.8393 16.8599L29.8254 16.8336C29.9366 16.6284 30 16.4123 30 16.1862V14.7218C30 14.5237 29.9514 14.3219 29.8546 14.1222L29.8434 14.0991C29.872 14.0101 29.8921 13.9189 29.8921 13.8223C29.8921 12.6389 27.6287 12 25.4988 12C23.3706 12 21.1079 12.6389 21.1079 13.8223C21.1079 13.9189 21.128 14.0104 21.1569 14.0995L21.1454 14.1227C21.0482 14.3223 21 14.5241 21 14.7223V16.1865C21 16.412 21.0629 16.6285 21.1741 16.8331L21.1595 16.8612C21.0533 17.0691 21 17.2799 21 17.4882V18.9523C21 19.1706 21.0594 19.3798 21.1645 19.579L21.1595 19.5884C21.0533 19.7959 21 20.0073 21 20.2145V21.6793C20.9999 22.9804 22.976 24 25.4988 24ZM21.4815 14.9671C22.2034 15.6586 23.8778 16.0167 25.4988 16.0167C27.1222 16.0167 28.7953 15.6583 29.5181 14.9668V16.1859C29.5181 17.026 27.8684 17.9621 25.4988 17.9621C23.1312 17.9621 21.4815 17.026 21.4815 16.1859V14.9671ZM21.4815 17.5744C22.2206 18.3386 23.7405 18.8269 25.4988 18.8269C27.2595 18.8269 28.7794 18.3386 29.5181 17.5736V18.9518C29.5181 19.7919 27.8684 20.7282 25.4988 20.7282C23.1312 20.7282 21.4815 19.7919 21.4815 18.9518V17.5744ZM21.4815 20.3015C22.2206 21.0662 23.7405 21.5544 25.4988 21.5544C27.2595 21.5544 28.7794 21.0662 29.5181 20.301V21.6793C29.5181 22.5194 27.8684 23.4554 25.4988 23.4554C23.1312 23.4554 21.4815 22.5194 21.4815 21.6793V20.3015Z"
       fill="black"
       id="path6" />
  </g>
</svg>
