<?xml version="1.0" encoding="UTF-8" standalone="no"?>
<svg
   xmlns:dc="http://purl.org/dc/elements/1.1/"
   xmlns:cc="http://creativecommons.org/ns#"
   xmlns:rdf="http://www.w3.org/1999/02/22-rdf-syntax-ns#"
   xmlns:svg="http://www.w3.org/2000/svg"
   xmlns="http://www.w3.org/2000/svg"
   xmlns:sodipodi="http://sodipodi.sourceforge.net/DTD/sodipodi-0.dtd"
   xmlns:inkscape="http://www.inkscape.org/namespaces/inkscape"
   inkscape:version="1.0 (4035a4fb49, 2020-05-01)"
   sodipodi:docname="tailwindcss.svg"
   id="svg11"
   version="1.1"
   height="35"
   width="58.333332">
  <metadata
     id="metadata15">
    <rdf:RDF>
      <cc:Work
         rdf:about="">
        <dc:format>image/svg+xml</dc:format>
        <dc:type
           rdf:resource="http://purl.org/dc/dcmitype/StillImage" />
      </cc:Work>
    </rdf:RDF>
  </metadata>
  <sodipodi:namedview
     inkscape:current-layer="svg11"
     inkscape:window-maximized="1"
     inkscape:window-y="27"
     inkscape:window-x="0"
     inkscape:cy="19.2"
     inkscape:cx="32"
     inkscape:zoom="3.6171875"
     showgrid="false"
     id="namedview13"
     inkscape:window-height="671"
     inkscape:window-width="1366"
     inkscape:pageshadow="2"
     inkscape:pageopacity="0"
     guidetolerance="10"
     gridtolerance="10"
     objecttolerance="10"
     borderopacity="1"
     bordercolor="#666666"
     pagecolor="#ffffff" />
  <defs
     id="defs7">
    <linearGradient
       gradientTransform="matrix(0.91145833,0,0,0.91145833,0,-11.666667)"
       gradientUnits="userSpaceOnUse"
       x2="64"
       id="A"
       y2="85.333"
       y1="-21.333"
       x1="0">
      <stop
         id="stop2"
         offset="0%"
         stop-color="#2383ae" />
      <stop
         id="stop4"
         offset="100%"
         stop-color="#6dd7b9" />
    </linearGradient>
  </defs>
  <path
     style="fill:url(#A);stroke-width:0.911458"
     id="path9"
     fill-rule="evenodd"
     fill="url(#A)"
     d="M 14.583333,11.666667 C 16.527474,3.889193 21.389193,0 29.166667,0 40.833333,0 42.291667,8.75 48.125,10.208333 52.014193,11.180859 55.416667,9.722526 58.333333,5.833333 56.389193,13.610807 51.527474,17.5 43.75,17.5 32.083333,17.5 30.625,8.75 24.791667,7.291667 20.902474,6.319141 17.5,7.777474 14.583333,11.666667 Z M 0,29.166667 C 1.9441406,21.389193 6.8058594,17.5 14.583333,17.5 c 11.666667,0 13.125,8.75 18.958334,10.208333 3.889192,0.972526 7.291666,-0.485807 10.208333,-4.375 C 41.805859,31.110807 36.944141,35 29.166667,35 17.5,35 16.041667,26.25 10.208333,24.791667 6.3191406,23.819141 2.9166667,25.277474 0,29.166667 Z" />
</svg>
