<svg width="20" height="20" viewBox="0 0 20 20" fill="none" xmlns="http://www.w3.org/2000/svg">
<g clip-path="url(#clip0)">
<path d="M10.0009 19.9998C15.5237 19.9998 20.0008 15.5227 20.0008 9.99991C20.0008 4.47711 15.5237 0 10.0009 0C4.47809 0 0.000976562 4.47711 0.000976562 9.99991C0.000976562 15.5227 4.47809 19.9998 10.0009 19.9998Z" fill="white"/>
<path d="M16.1252 7.18668C15.6967 7.3767 15.2357 7.50523 14.7522 7.56263C15.2458 7.2669 15.6246 6.79897 15.8034 6.24049C15.3416 6.51447 14.8298 6.71323 14.2856 6.82036C13.8495 6.356 13.2283 6.0658 12.5404 6.0658C11.2206 6.0658 10.1502 7.13623 10.1502 8.45606C10.1502 8.64341 10.1714 8.82576 10.2124 9.00081C8.22587 8.90117 6.4645 7.94963 5.2855 6.50306C5.07979 6.85601 4.96179 7.2669 4.96179 7.70488C4.96179 8.53395 5.38408 9.26588 6.0251 9.69441C5.63346 9.68211 5.26465 9.57463 4.94254 9.39512C4.94236 9.40528 4.94236 9.41544 4.94236 9.42542C4.94236 10.5836 5.76662 11.5495 6.85988 11.769C6.65952 11.8239 6.44792 11.8529 6.23027 11.8529C6.0759 11.8529 5.92634 11.8381 5.78053 11.8103C6.08463 12.7597 6.96719 13.4508 8.01338 13.4703C7.19518 14.1115 6.16467 14.4935 5.0445 14.4935C4.85198 14.4935 4.66125 14.4822 4.47461 14.46C5.53186 15.1384 6.78857 15.534 8.13834 15.534C12.5349 15.534 14.9392 11.8918 14.9392 8.73289C14.9392 8.62932 14.9369 8.52611 14.9323 8.42379C15.3997 8.08688 15.8049 7.66602 16.1252 7.18668Z" fill="black"/>
</g>
<defs>
<clipPath id="clip0">
<rect width="20" height="20" fill="white"/>
</clipPath>
</defs>
</svg>
